<?xml version="1.0" encoding="UTF-8"?>
<!DOCTYPE svg PUBLIC "-//W3C//DTD SVG 1.1//EN" "http://www.w3.org/Graphics/SVG/1.1/DTD/svg11.dtd">
<svg xmlns="http://www.w3.org/2000/svg" version="1.1" width="1417px" height="513px" style="shape-rendering:geometricPrecision; text-rendering:geometricPrecision; image-rendering:optimizeQuality; fill-rule:evenodd; clip-rule:evenodd" xmlns:xlink="http://www.w3.org/1999/xlink">
<g><path style="opacity:1" fill="#fffefd" d="M 275.5,-0.5 C 277.833,-0.5 280.167,-0.5 282.5,-0.5C 293.589,0.818291 301.089,6.81829 305,17.5C 306.637,22.7141 307.637,28.0475 308,33.5C 309.158,94.667 306.492,155.667 300,216.5C 295.462,259.654 285.128,301.32 269,341.5C 256.658,370.379 238.825,395.212 215.5,416C 185.383,439.654 151.05,452.154 112.5,453.5C 108.116,453.174 103.783,453.508 99.5,454.5C 99.6236,455.107 99.9569,455.44 100.5,455.5C 106.035,468.928 111.868,482.262 118,495.5C 118.519,509.349 112.019,514.183 98.5,510C 92.7268,506.526 87.8935,502.026 84,496.5C 76.7982,482.804 66.9648,471.471 54.5,462.5C 54.0269,461.094 53.0269,460.427 51.5,460.5C 45.3315,457.92 39.6649,454.586 34.5,450.5C 34.0269,449.094 33.0269,448.427 31.5,448.5C 27.1038,445.975 23.1038,442.975 19.5,439.5C 19.0269,438.094 18.0269,437.427 16.5,437.5C 13.8284,436.499 11.1618,435.499 8.5,434.5C 8.02694,433.094 7.02694,432.427 5.5,432.5C 1.91284,429.305 0.746178,425.305 2,420.5C 5.68935,416.049 8.85602,411.216 11.5,406C 12.8333,405.333 14.1667,404.667 15.5,404C 24.508,403.793 33.508,403.793 42.5,404C 45.1667,402.667 47.8333,401.333 50.5,400C 70.1235,385.701 89.1235,370.701 107.5,355C 119.344,354.183 124.177,359.683 122,371.5C 115.635,385.072 108.135,397.905 99.5,410C 132.505,409.653 161.172,398.487 185.5,376.5C 188.167,375.833 189.833,374.167 190.5,371.5C 194.51,366.793 198.51,362.126 202.5,357.5C 203.906,357.027 204.573,356.027 204.5,354.5C 223.425,324.295 236.591,291.628 244,256.5C 254.854,205.997 261.521,154.997 264,103.5C 242.664,146.204 217.331,186.204 188,223.5C 171.932,242.911 153.432,259.411 132.5,273C 110.528,286.538 87.5276,289.205 63.5,281C 54.9738,275.805 49.4738,268.305 47,258.5C 42.4406,235.641 45.1073,213.641 55,192.5C 59.5153,182.12 65.0153,172.454 71.5,163.5C 72.9063,163.027 73.573,162.027 73.5,160.5C 74.9063,160.027 75.573,159.027 75.5,157.5C 76.9063,157.027 77.573,156.027 77.5,154.5C 78.9063,154.027 79.573,153.027 79.5,151.5C 82.1183,146.587 85.4516,142.254 89.5,138.5C 90.9063,138.027 91.573,137.027 91.5,135.5C 106.397,116.933 122.73,99.5993 140.5,83.5C 142.749,82.9202 144.415,81.5869 145.5,79.5C 175.723,50.4701 209.723,26.6368 247.5,8C 256.686,4.21199 266.019,1.37866 275.5,-0.5 Z M 239.5,76.5 C 238.094,76.9731 237.427,77.9731 237.5,79.5C 232.666,86.4957 228.333,93.829 224.5,101.5C 223.094,101.973 222.427,102.973 222.5,104.5C 220.336,106.822 218.669,109.489 217.5,112.5C 216.094,112.973 215.427,113.973 215.5,115.5C 214.094,115.973 213.427,116.973 213.5,118.5C 212.094,118.973 211.427,119.973 211.5,121.5C 210.094,121.973 209.427,122.973 209.5,124.5C 208.094,124.973 207.427,125.973 207.5,127.5C 206.094,127.973 205.427,128.973 205.5,130.5C 203.478,132.531 201.811,134.865 200.5,137.5C 199.094,137.973 198.427,138.973 198.5,140.5C 197.026,141.436 196.026,142.77 195.5,144.5C 194.094,144.973 193.427,145.973 193.5,147.5C 191.147,149.86 189.147,152.527 187.5,155.5C 186.094,155.973 185.427,156.973 185.5,158.5C 182.815,161.19 180.482,164.19 178.5,167.5C 177.094,167.973 176.427,168.973 176.5,170.5C 164.653,185.497 152.319,200.164 139.5,214.5C 135.167,218.167 131.167,222.167 127.5,226.5C 121.612,231.884 115.279,236.718 108.5,241C 102.63,243.429 97.1303,242.929 92,239.5C 90.549,226.753 92.2156,214.419 97,202.5C 110.564,172.89 129.398,147.057 153.5,125C 184.527,96.5332 217.86,71.5332 253.5,50C 248.426,58.6498 243.759,67.4832 239.5,76.5 Z"/></g>
<g><path style="opacity:1" fill="#ffe5e3" d="M 239.5,76.5 C 239.573,78.0269 238.906,79.0269 237.5,79.5C 237.427,77.9731 238.094,76.9731 239.5,76.5 Z"/></g>
<g><path style="opacity:1" fill="#ffe9e8" d="M 145.5,79.5 C 144.415,81.5869 142.749,82.9202 140.5,83.5C 141.585,81.4131 143.251,80.0798 145.5,79.5 Z"/></g>
<g><path style="opacity:1" fill="#fffdfd" d="M 1124.5,316.5 C 1124.03,315.094 1123.03,314.427 1121.5,314.5C 1119.02,312.88 1117.52,310.547 1117,307.5C 1116.33,302.5 1116.33,297.5 1117,292.5C 1120.77,271.521 1124.44,250.521 1128,229.5C 1130.41,209.178 1132.41,188.844 1134,168.5C 1138.8,161.841 1144.97,160.008 1152.5,163C 1153.79,165.087 1154.96,167.254 1156,169.5C 1157.49,176.829 1157.82,184.162 1157,191.5C 1161.43,181.622 1166.6,172.288 1172.5,163.5C 1173.91,163.027 1174.57,162.027 1174.5,160.5C 1175.34,158.147 1176.67,156.147 1178.5,154.5C 1179.91,154.027 1180.57,153.027 1180.5,151.5C 1184.11,145.562 1188.44,140.229 1193.5,135.5C 1196.76,133.906 1199.43,131.573 1201.5,128.5C 1217.21,112.397 1236.37,103.064 1259,100.5C 1268.87,100.003 1275.37,104.337 1278.5,113.5C 1278.41,118.088 1276.41,121.588 1272.5,124C 1257.78,129.863 1243.44,136.529 1229.5,144C 1211.85,155.311 1198.02,170.145 1188,188.5C 1177.04,208.424 1167.7,229.091 1160,250.5C 1152.8,271.114 1145.8,291.781 1139,312.5C 1135.01,317.318 1130.18,318.651 1124.5,316.5 Z"/></g>
<g><path style="opacity:1" fill="#ffe5e3" d="M 224.5,101.5 C 224.573,103.027 223.906,104.027 222.5,104.5C 222.427,102.973 223.094,101.973 224.5,101.5 Z"/></g>
<g><path style="opacity:1" fill="#ffe5e3" d="M 217.5,112.5 C 217.573,114.027 216.906,115.027 215.5,115.5C 215.427,113.973 216.094,112.973 217.5,112.5 Z"/></g>
<g><path style="opacity:1" fill="#fffdfd" d="M 980.5,258.5 C 981.906,258.027 982.573,257.027 982.5,255.5C 983.475,253.205 984.808,251.205 986.5,249.5C 987.906,249.027 988.573,248.027 988.5,246.5C 988.328,245.508 988.662,244.842 989.5,244.5C 990.906,244.027 991.573,243.027 991.5,241.5C 1011.95,201.941 1030.78,161.608 1048,120.5C 1056.21,113.668 1063.88,114.335 1071,122.5C 1074.97,130.168 1075.64,138.168 1073,146.5C 1063.36,200.036 1052.69,253.37 1041,306.5C 1039.21,317.974 1033.04,321.474 1022.5,317C 1017.18,311.209 1015.18,304.375 1016.5,296.5C 1016.67,287.772 1017.51,279.105 1019,270.5C 1022.14,253.128 1025.14,235.795 1028,218.5C 1018.95,239.605 1007.62,259.271 994,277.5C 986.994,286.185 978.161,292.018 967.5,295C 947.78,295.546 936.28,286.046 933,266.5C 931.429,251.815 931.762,237.148 934,222.5C 937.887,191.619 945.22,161.619 956,132.5C 963.477,125.758 970.811,126.091 978,133.5C 979.855,136.935 981.022,140.602 981.5,144.5C 975.353,168.421 969.52,192.421 964,216.5C 960.078,233.039 959.078,249.706 961,266.5C 964.026,269.864 967.526,270.364 971.5,268C 974.732,264.938 977.732,261.771 980.5,258.5 Z"/></g>
<g><path style="opacity:1" fill="#fffdfd" d="M 1416.5,130.5 C 1416.5,132.5 1416.5,134.5 1416.5,136.5C 1406.5,194.652 1395,252.652 1382,310.5C 1378.58,319.295 1372.75,321.461 1364.5,317C 1360.02,311.892 1357.68,305.892 1357.5,299C 1360.27,271.908 1364.6,245.074 1370.5,218.5C 1371.53,214.636 1371.2,214.636 1369.5,218.5C 1359.67,243.682 1345.67,266.182 1327.5,286C 1320.14,292.787 1311.47,295.787 1301.5,295C 1297.75,294.698 1294.42,293.531 1291.5,291.5C 1291.03,290.094 1290.03,289.427 1288.5,289.5C 1281.87,285.342 1277.7,279.342 1276,271.5C 1272.96,252.484 1273.29,233.484 1277,214.5C 1280.96,188.679 1286.96,163.346 1295,138.5C 1299.43,126.921 1306.93,124.421 1317.5,131C 1320.94,134.816 1322.94,139.316 1323.5,144.5C 1316.37,171.677 1309.87,199.01 1304,226.5C 1301.4,239.809 1301.07,253.142 1303,266.5C 1305.21,269.29 1308.04,270.123 1311.5,269C 1316.74,265.264 1321.07,260.764 1324.5,255.5C 1325.91,255.027 1326.57,254.027 1326.5,252.5C 1327.91,252.027 1328.57,251.027 1328.5,249.5C 1329.58,246.996 1330.92,244.663 1332.5,242.5C 1333.91,242.027 1334.57,241.027 1334.5,239.5C 1354.16,201.516 1372.16,162.85 1388.5,123.5C 1389.91,123.027 1390.57,122.027 1390.5,120.5C 1397.76,113.826 1404.92,114.159 1412,121.5C 1414.08,124.324 1415.58,127.324 1416.5,130.5 Z"/></g>
<g><path style="opacity:1" fill="#ffe5e3" d="M 215.5,115.5 C 215.573,117.027 214.906,118.027 213.5,118.5C 213.427,116.973 214.094,115.973 215.5,115.5 Z"/></g>
<g><path style="opacity:1" fill="#fffdfd" d="M 570.5,308.5 C 570.027,307.094 569.027,306.427 567.5,306.5C 558.412,299.004 552.912,289.338 551,277.5C 548.707,264.7 549.207,252.033 552.5,239.5C 553.043,239.44 553.376,239.107 553.5,238.5C 552.743,237.227 552.077,237.227 551.5,238.5C 519.357,265.399 483.69,286.899 444.5,303C 432.626,307.885 420.292,310.719 407.5,311.5C 387.949,310.792 376.116,300.792 372,281.5C 366.281,232.995 378.614,189.661 409,151.5C 418.225,140.599 429.391,132.432 442.5,127C 460.138,123.366 475.304,127.866 488,140.5C 499.891,159.341 499.224,177.674 486,195.5C 460.92,220.385 431.42,238.052 397.5,248.5C 395.688,258.089 395.188,267.756 396,277.5C 396.833,279.667 398.333,281.167 400.5,282C 410.276,282.92 419.943,282.253 429.5,280C 446.545,275.096 462.879,268.429 478.5,260C 503.333,245.418 527.999,230.585 552.5,215.5C 552.286,198.492 555.453,182.159 562,166.5C 563.697,163.328 565.53,160.328 567.5,157.5C 568.906,157.027 569.573,156.027 569.5,154.5C 570.906,154.027 571.573,153.027 571.5,151.5C 573.482,148.19 575.815,145.19 578.5,142.5C 581.427,141.243 583.761,139.243 585.5,136.5C 601.121,121.351 619.788,115.517 641.5,119C 665.72,126.716 678.72,143.382 680.5,169C 682.948,214.324 669.448,254.157 640,288.5C 630.1,299.528 618.267,307.695 604.5,313C 593.962,315.419 583.629,314.753 573.5,311C 572.429,310.148 571.429,309.315 570.5,308.5 Z M 629.5,253.5 C 628.094,253.973 627.427,254.973 627.5,256.5C 622.739,262.436 617.739,268.269 612.5,274C 603.911,281.64 593.911,284.64 582.5,283C 580,281.833 578.167,280 577,277.5C 575.428,269.245 575.095,260.911 576,252.5C 577.96,241.496 580.46,230.663 583.5,220C 578.535,188.267 590.535,165.267 619.5,151C 628.873,147.745 638.207,147.745 647.5,151C 652.815,156.741 654.815,163.574 653.5,171.5C 652.167,200.829 644.167,228.162 629.5,253.5 Z M 450.5,151.5 C 460.265,150.198 465.599,154.364 466.5,164C 465.66,169.521 463.826,174.688 461,179.5C 455.5,186.333 449.333,192.5 442.5,198C 430.671,206.082 418.671,213.916 406.5,221.5C 411.737,201.368 420.57,182.702 433,165.5C 437.89,159.421 443.723,154.754 450.5,151.5 Z"/></g>
<g><path style="opacity:1" fill="#ffe5e3" d="M 213.5,118.5 C 213.573,120.027 212.906,121.027 211.5,121.5C 211.427,119.973 212.094,118.973 213.5,118.5 Z"/></g>
<g><path style="opacity:1" fill="#fffdfd" d="M 696.5,391.5 C 696.027,390.094 695.027,389.427 693.5,389.5C 687.916,384.656 687.083,378.99 691,372.5C 692.579,370.959 694.413,369.792 696.5,369C 710.528,369.122 724.528,369.955 738.5,371.5C 766.213,371.808 788.546,361.142 805.5,339.5C 806.906,339.027 807.573,338.027 807.5,336.5C 807.932,335.29 808.599,334.29 809.5,333.5C 810.906,333.027 811.573,332.027 811.5,330.5C 825.923,300.817 834.756,269.484 838,236.5C 839.897,222.2 841.397,207.867 842.5,193.5C 843.641,190.36 843.808,187.027 843,183.5C 842.487,184.527 841.987,185.527 841.5,186.5C 826.584,219.17 806.584,248.336 781.5,274C 771.256,283.889 759.256,290.889 745.5,295C 721.546,299.879 709.213,290.213 708.5,266C 710.501,246.136 717.835,228.636 730.5,213.5C 731.906,213.027 732.573,212.027 732.5,210.5C 738.456,202.542 744.789,194.875 751.5,187.5C 756.774,183.895 761.441,179.562 765.5,174.5C 784.936,154.437 807.269,138.271 832.5,126C 838.713,123.151 845.213,121.318 852,120.5C 863.935,121.647 869.935,128.313 870,140.5C 871.235,185.406 868.568,230.073 862,274.5C 857.715,303.696 847.715,330.696 832,355.5C 808.495,385.83 777.328,400.497 738.5,399.5C 729.475,398.91 720.475,398.076 711.5,397C 706.005,396.227 701.005,394.394 696.5,391.5 Z M 835.5,152.5 C 830.487,161.86 825.487,171.194 820.5,180.5C 819.094,180.973 818.427,181.973 818.5,183.5C 817.11,184.899 816.11,186.566 815.5,188.5C 814.094,188.973 813.427,189.973 813.5,191.5C 812.094,191.973 811.427,192.973 811.5,194.5C 810.094,194.973 809.427,195.973 809.5,197.5C 808.094,197.973 807.427,198.973 807.5,200.5C 805.478,202.531 803.811,204.865 802.5,207.5C 801.094,207.973 800.427,208.973 800.5,210.5C 786.723,229.473 771.389,247.307 754.5,264C 752.5,265.333 750.5,266.667 748.5,268C 744.846,270.14 741.346,269.973 738,267.5C 737.544,252.865 741.544,239.531 750,227.5C 766.207,205.626 785.374,186.793 807.5,171C 816.462,164.192 825.795,158.026 835.5,152.5 Z"/></g>
<g><path style="opacity:1" fill="#ffe5e3" d="M 1390.5,120.5 C 1390.57,122.027 1389.91,123.027 1388.5,123.5C 1388.43,121.973 1389.09,120.973 1390.5,120.5 Z"/></g>
<g><path style="opacity:1" fill="#ffe5e3" d="M 211.5,121.5 C 211.573,123.027 210.906,124.027 209.5,124.5C 209.427,122.973 210.094,121.973 211.5,121.5 Z"/></g>
<g><path style="opacity:1" fill="#ffe5e3" d="M 209.5,124.5 C 209.573,126.027 208.906,127.027 207.5,127.5C 207.427,125.973 208.094,124.973 209.5,124.5 Z"/></g>
<g><path style="opacity:1" fill="#ffe5e3" d="M 207.5,127.5 C 207.573,129.027 206.906,130.027 205.5,130.5C 205.427,128.973 206.094,127.973 207.5,127.5 Z"/></g>
<g><path style="opacity:1" fill="#ffe9e8" d="M 1201.5,128.5 C 1199.43,131.573 1196.76,133.906 1193.5,135.5C 1195.57,132.427 1198.24,130.094 1201.5,128.5 Z"/></g>
<g><path style="opacity:1" fill="#ffe4e3" d="M 91.5,135.5 C 91.573,137.027 90.9063,138.027 89.5,138.5C 89.427,136.973 90.0937,135.973 91.5,135.5 Z"/></g>
<g><path style="opacity:1" fill="#ffe9e8" d="M 585.5,136.5 C 583.761,139.243 581.427,141.243 578.5,142.5C 580.239,139.757 582.573,137.757 585.5,136.5 Z"/></g>
<g><path style="opacity:1" fill="#ffe4e2" d="M 200.5,137.5 C 200.573,139.027 199.906,140.027 198.5,140.5C 198.427,138.973 199.094,137.973 200.5,137.5 Z"/></g>
<g><path style="opacity:1" fill="#ffe4e1" d="M 195.5,144.5 C 195.573,146.027 194.906,147.027 193.5,147.5C 193.427,145.973 194.094,144.973 195.5,144.5 Z"/></g>
<g><path style="opacity:1" fill="#ffe4e1" d="M 79.5,151.5 C 79.573,153.027 78.9063,154.027 77.5,154.5C 77.427,152.973 78.0937,151.973 79.5,151.5 Z"/></g>
<g><path style="opacity:1" fill="#ffe4e2" d="M 571.5,151.5 C 571.573,153.027 570.906,154.027 569.5,154.5C 569.427,152.973 570.094,151.973 571.5,151.5 Z"/></g>
<g><path style="opacity:1" fill="#ffe4e1" d="M 1180.5,151.5 C 1180.57,153.027 1179.91,154.027 1178.5,154.5C 1178.43,152.973 1179.09,151.973 1180.5,151.5 Z"/></g>
<g><path style="opacity:1" fill="#ffe5e3" d="M 77.5,154.5 C 77.573,156.027 76.9063,157.027 75.5,157.5C 75.427,155.973 76.0937,154.973 77.5,154.5 Z"/></g>
<g><path style="opacity:1" fill="#ffe5e3" d="M 569.5,154.5 C 569.573,156.027 568.906,157.027 567.5,157.5C 567.427,155.973 568.094,154.973 569.5,154.5 Z"/></g>
<g><path style="opacity:1" fill="#ffe4e1" d="M 187.5,155.5 C 187.573,157.027 186.906,158.027 185.5,158.5C 185.427,156.973 186.094,155.973 187.5,155.5 Z"/></g>
<g><path style="opacity:1" fill="#ffe5e3" d="M 75.5,157.5 C 75.573,159.027 74.9063,160.027 73.5,160.5C 73.427,158.973 74.0937,157.973 75.5,157.5 Z"/></g>
<g><path style="opacity:1" fill="#ffe5e3" d="M 73.5,160.5 C 73.573,162.027 72.9063,163.027 71.5,163.5C 71.427,161.973 72.0937,160.973 73.5,160.5 Z"/></g>
<g><path style="opacity:1" fill="#ffe5e3" d="M 1174.5,160.5 C 1174.57,162.027 1173.91,163.027 1172.5,163.5C 1172.43,161.973 1173.09,160.973 1174.5,160.5 Z"/></g>
<g><path style="opacity:1" fill="#ffe4e2" d="M 178.5,167.5 C 178.573,169.027 177.906,170.027 176.5,170.5C 176.427,168.973 177.094,167.973 178.5,167.5 Z"/></g>
<g><path style="opacity:1" fill="#ffe9e8" d="M 765.5,174.5 C 761.441,179.562 756.774,183.895 751.5,187.5C 755.559,182.438 760.226,178.105 765.5,174.5 Z"/></g>
<g><path style="opacity:1" fill="#ffe5e3" d="M 820.5,180.5 C 820.573,182.027 819.906,183.027 818.5,183.5C 818.427,181.973 819.094,180.973 820.5,180.5 Z"/></g>
<g><path style="opacity:1" fill="#ffe5e3" d="M 815.5,188.5 C 815.573,190.027 814.906,191.027 813.5,191.5C 813.427,189.973 814.094,188.973 815.5,188.5 Z"/></g>
<g><path style="opacity:1" fill="#ffe1de" d="M 842.5,193.5 C 842.802,190.941 842.468,188.607 841.5,186.5C 841.987,185.527 842.487,184.527 843,183.5C 843.808,187.027 843.641,190.36 842.5,193.5 Z"/></g>
<g><path style="opacity:1" fill="#ffe5e3" d="M 813.5,191.5 C 813.573,193.027 812.906,194.027 811.5,194.5C 811.427,192.973 812.094,191.973 813.5,191.5 Z"/></g>
<g><path style="opacity:1" fill="#ffe5e3" d="M 811.5,194.5 C 811.573,196.027 810.906,197.027 809.5,197.5C 809.427,195.973 810.094,194.973 811.5,194.5 Z"/></g>
<g><path style="opacity:1" fill="#ffe5e3" d="M 809.5,197.5 C 809.573,199.027 808.906,200.027 807.5,200.5C 807.427,198.973 808.094,197.973 809.5,197.5 Z"/></g>
<g><path style="opacity:1" fill="#ffe4e2" d="M 802.5,207.5 C 802.573,209.027 801.906,210.027 800.5,210.5C 800.427,208.973 801.094,207.973 802.5,207.5 Z"/></g>
<g><path style="opacity:1" fill="#ffe4e2" d="M 732.5,210.5 C 732.573,212.027 731.906,213.027 730.5,213.5C 730.427,211.973 731.094,210.973 732.5,210.5 Z"/></g>
<g><path style="opacity:1" fill="#ffd6d2" d="M 1370.5,218.5 C 1370.17,218.5 1369.83,218.5 1369.5,218.5C 1371.2,214.636 1371.53,214.636 1370.5,218.5 Z"/></g>
<g><path style="opacity:1" fill="#ffe9e8" d="M 139.5,214.5 C 136.5,219.5 132.5,223.5 127.5,226.5C 131.167,222.167 135.167,218.167 139.5,214.5 Z"/></g>
<g><path style="opacity:1" fill="#ffd6d3" d="M 551.5,238.5 C 552.077,237.227 552.743,237.227 553.5,238.5C 553.376,239.107 553.043,239.44 552.5,239.5C 552.5,238.833 552.167,238.5 551.5,238.5 Z"/></g>
<g><path style="opacity:1" fill="#ffe5e3" d="M 1334.5,239.5 C 1334.57,241.027 1333.91,242.027 1332.5,242.5C 1332.43,240.973 1333.09,239.973 1334.5,239.5 Z"/></g>
<g><path style="opacity:1" fill="#ffe5e3" d="M 991.5,241.5 C 991.573,243.027 990.906,244.027 989.5,244.5C 989.427,242.973 990.094,241.973 991.5,241.5 Z"/></g>
<g><path style="opacity:1" fill="#ffe5e3" d="M 988.5,246.5 C 988.573,248.027 987.906,249.027 986.5,249.5C 986.427,247.973 987.094,246.973 988.5,246.5 Z"/></g>
<g><path style="opacity:1" fill="#ffe5e3" d="M 1328.5,249.5 C 1328.57,251.027 1327.91,252.027 1326.5,252.5C 1326.43,250.973 1327.09,249.973 1328.5,249.5 Z"/></g>
<g><path style="opacity:1" fill="#ffe5e3" d="M 1326.5,252.5 C 1326.57,254.027 1325.91,255.027 1324.5,255.5C 1324.43,253.973 1325.09,252.973 1326.5,252.5 Z"/></g>
<g><path style="opacity:1" fill="#ffe5e3" d="M 629.5,253.5 C 629.573,255.027 628.906,256.027 627.5,256.5C 627.427,254.973 628.094,253.973 629.5,253.5 Z"/></g>
<g><path style="opacity:1" fill="#ffe4e2" d="M 982.5,255.5 C 982.573,257.027 981.906,258.027 980.5,258.5C 980.427,256.973 981.094,255.973 982.5,255.5 Z"/></g>
<g><path style="opacity:1" fill="#ffe5e3" d="M 1288.5,289.5 C 1290.03,289.427 1291.03,290.094 1291.5,291.5C 1289.97,291.573 1288.97,290.906 1288.5,289.5 Z"/></g>
<g><path style="opacity:1" fill="#ffe4e2" d="M 567.5,306.5 C 569.027,306.427 570.027,307.094 570.5,308.5C 568.973,308.573 567.973,307.906 567.5,306.5 Z"/></g>
<g><path style="opacity:1" fill="#ffe4e2" d="M 1121.5,314.5 C 1123.03,314.427 1124.03,315.094 1124.5,316.5C 1122.97,316.573 1121.97,315.906 1121.5,314.5 Z"/></g>
<g><path style="opacity:1" fill="#ffe5e3" d="M 811.5,330.5 C 811.573,332.027 810.906,333.027 809.5,333.5C 809.427,331.973 810.094,330.973 811.5,330.5 Z"/></g>
<g><path style="opacity:1" fill="#ffe4e2" d="M 807.5,336.5 C 807.573,338.027 806.906,339.027 805.5,339.5C 805.427,337.973 806.094,336.973 807.5,336.5 Z"/></g>
<g><path style="opacity:1" fill="#ffe4e1" d="M 204.5,354.5 C 204.573,356.027 203.906,357.027 202.5,357.5C 202.427,355.973 203.094,354.973 204.5,354.5 Z"/></g>
<g><path style="opacity:1" fill="#ffe9e7" d="M 190.5,371.5 C 189.833,374.167 188.167,375.833 185.5,376.5C 186.833,374.5 188.5,372.833 190.5,371.5 Z"/></g>
<g><path style="opacity:1" fill="#ffe4e1" d="M 693.5,389.5 C 695.027,389.427 696.027,390.094 696.5,391.5C 694.973,391.573 693.973,390.906 693.5,389.5 Z"/></g>
<g><path style="opacity:1" fill="#ffe0de" d="M 5.5,432.5 C 7.02694,432.427 8.02694,433.094 8.5,434.5C 6.97306,434.573 5.97306,433.906 5.5,432.5 Z"/></g>
<g><path style="opacity:1" fill="#ffe5e3" d="M 16.5,437.5 C 18.0269,437.427 19.0269,438.094 19.5,439.5C 17.9731,439.573 16.9731,438.906 16.5,437.5 Z"/></g>
<g><path style="opacity:1" fill="#ffe4e2" d="M 31.5,448.5 C 33.0269,448.427 34.0269,449.094 34.5,450.5C 32.9731,450.573 31.9731,449.906 31.5,448.5 Z"/></g>
<g><path style="opacity:1" fill="#ffe2df" d="M 112.5,453.5 C 108.5,454.167 104.5,454.833 100.5,455.5C 99.9569,455.44 99.6236,455.107 99.5,454.5C 103.783,453.508 108.116,453.174 112.5,453.5 Z"/></g>
<g><path style="opacity:1" fill="#ffe5e3" d="M 51.5,460.5 C 53.0269,460.427 54.0269,461.094 54.5,462.5C 52.9731,462.573 51.9731,461.906 51.5,460.5 Z"/></g>
</svg>
