<?xml version="1.0" encoding="UTF-8"?>
<svg version="1.1" xmlns="http://www.w3.org/2000/svg" width="1000" height="1000">
<path d="M0 0 C0.79641907 0.04290161 1.59283813 0.08580322 2.41339111 0.13000488 C97.28039665 5.39738669 189.55789608 39.73102971 264.4375 98.25 C265.34113281 98.95253906 266.24476563 99.65507813 267.17578125 100.37890625 C277.80366193 108.76933837 288.00314169 117.62656989 297.91503906 126.84521484 C299.46026917 128.27100927 301.02075797 129.67818561 302.5859375 131.08203125 C311.03425737 138.69707458 318.78411052 146.84259386 326.4375 155.25 C327.28441406 156.17039063 328.13132812 157.09078125 329.00390625 158.0390625 C333.90482588 163.40876575 338.59088839 168.92726376 343.12402344 174.61083984 C344.03567556 175.74854102 344.95344415 176.88135732 345.87597656 178.01025391 C363.65068843 199.78568664 378.77169869 223.72669607 392.4375 248.25 C392.84967773 248.97799805 393.26185547 249.70599609 393.68652344 250.45605469 C435.79473183 325.04876029 453.27563502 414.86038239 448.6875 499.8125 C448.62314758 501.0071286 448.62314758 501.0071286 448.55749512 502.22589111 C443.29011331 597.09289665 408.95647029 689.37039608 350.4375 764.25 C349.73496094 765.15363281 349.03242187 766.05726563 348.30859375 766.98828125 C339.91816163 777.61616193 331.06093011 787.81564169 321.84228516 797.72753906 C320.41649073 799.27276917 319.00931439 800.83325797 317.60546875 802.3984375 C309.99042542 810.84675737 301.84490614 818.59661052 293.4375 826.25 C292.51710938 827.09691406 291.59671875 827.94382812 290.6484375 828.81640625 C285.27873425 833.71732588 279.76023624 838.40338839 274.07666016 842.93652344 C272.93895898 843.84817556 271.80614268 844.76594415 270.67724609 845.68847656 C248.90181336 863.46318843 224.96080393 878.58419869 200.4375 892.25 C199.70950195 892.66217773 198.98150391 893.07435547 198.23144531 893.49902344 C139.97731652 926.38396809 72.686431 943.04977156 6.4375 948.25 C5.23101807 948.34571289 4.02453613 948.44142578 2.78149414 948.54003906 C-6.56466215 949.22619855 -15.88292446 949.49243981 -25.25 949.5 C-26.01784821 949.50067474 -26.78569641 949.50134949 -27.57681274 949.50204468 C-113.09939222 949.38487396 -200.16525316 925.34477148 -315.5625 850.25 C-316.91794922 849.19619141 -316.91794922 849.19619141 -318.30078125 848.12109375 C-328.92866193 839.73066163 -339.12814169 830.87343011 -349.04003906 821.65478516 C-350.58526917 820.22899073 -352.14575797 818.82181439 -353.7109375 817.41796875 C-362.15925737 809.80292542 -369.90911052 801.65740614 -377.5625 793.25 C-378.40941406 792.32960938 -379.25632812 791.40921875 -380.12890625 790.4609375 C-385.02982588 785.09123425 -389.71588839 779.57273624 -394.24902344 773.88916016 C-395.16067556 772.75145898 -396.07844415 771.61864268 -397.00097656 770.48974609 C-414.77568843 748.71431336 -429.89669869 724.77330393 -443.5625 700.25 C-443.97467773 699.52200195 -444.38685547 698.79400391 -444.81152344 698.04394531 C-486.91973183 623.45123971 -504.40063502 533.63961761 -499.8125 448.6875 C-499.76959839 447.89108093 -499.72669678 447.09466187 -499.68249512 446.27410889 C-494.41511331 351.40710335 -460.08147029 259.12960392 -401.5625 184.25 C-400.85996094 183.34636719 -400.15742188 182.44273437 -399.43359375 181.51171875 C-391.04316163 170.88383807 -382.18593011 160.68435831 -372.96728516 150.77246094 C-371.54149073 149.22723083 -370.13431439 147.66674203 -368.73046875 146.1015625 C-361.11542542 137.65324263 -352.96990614 129.90338948 -344.5625 122.25 C-343.64210938 121.40308594 -342.72171875 120.55617188 -341.7734375 119.68359375 C-336.40373425 114.78267412 -330.88523624 110.09661161 -325.20166016 105.56347656 C-324.06395898 104.65182444 -322.93114268 103.73405585 -321.80224609 102.81152344 C-300.02681336 85.03681157 -276.08580393 69.91580131 -251.5625 56.25 C-250.47050293 55.6317334 -250.47050293 55.6317334 -249.35644531 55.00097656 C-174.76373971 12.89276817 -84.95211761 -4.58813502 0 0 Z M-8.5625 38.25 C-8.5625 70.92 -8.5625 103.59 -8.5625 137.25 C0.04009116 137.25 7.97172349 136.99276513 16.4375 136.0625 C17.62923828 135.93375488 18.82097656 135.80500977 20.04882812 135.67236328 C34.53720175 134.01768639 49.31761511 131.93834065 63.4375 128.25 C61.53077718 121.93520202 59.11226098 116.18566735 56 110.375 C55.56824463 109.56345459 55.13648926 108.75190918 54.69165039 107.91577148 C45.18636089 90.33174742 34.19219124 73.80041718 20.4375 59.25 C19.60605469 58.3425 18.77460937 57.435 17.91796875 56.5 C10.69030943 48.88079837 1.85661495 40.85477874 -8.5625 38.25 Z M-68.125 57.3125 C-84.73831823 74.17328206 -96.3292076 93.98183607 -107.3125 114.8125 C-107.8384375 115.80644775 -108.364375 116.80039551 -108.90625 117.82446289 C-109.38578125 118.7499292 -109.8653125 119.67539551 -110.359375 120.62890625 C-110.78573242 121.4494751 -111.21208984 122.27004395 -111.65136719 123.11547852 C-112.75879291 125.32304935 -112.75879291 125.32304935 -112.5625 128.25 C-97.93216624 131.60710208 -83.34586746 133.93675103 -68.4375 135.5625 C-67.25722229 135.69271545 -67.25722229 135.69271545 -66.05310059 135.82556152 C-58.85740393 136.61148195 -51.81768996 137.25 -44.5625 137.25 C-44.5625 105.24 -44.5625 73.23 -44.5625 40.25 C-52.60226235 40.25 -62.8062157 52.03778086 -68.125 57.3125 Z M-110.5625 51.25 C-138.71562006 63.33443867 -164.81529538 78.49575289 -187.5625 99.25 C-185.31426225 101.74235778 -183.1557843 103.11770049 -180.1328125 104.5546875 C-178.82461548 105.17947998 -178.82461548 105.17947998 -177.48999023 105.81689453 C-176.56516846 106.24856934 -175.64034668 106.68024414 -174.6875 107.125 C-173.27416382 107.78991455 -173.27416382 107.78991455 -171.83227539 108.46826172 C-159.66166954 114.6897364 -159.66166954 114.6897364 -146.5625 117.25 C-145.93758667 115.96089722 -145.93758667 115.96089722 -145.30004883 114.64575195 C-134.88844211 93.22843827 -124.21802793 72.1560738 -109.5625 53.25 C-110.0575 52.26 -110.0575 52.26 -110.5625 51.25 Z M61.4375 53.25 C62.00404297 54.12785156 62.00404297 54.12785156 62.58203125 55.0234375 C75.44656566 75.08849585 87.75201523 95.43286706 97.4375 117.25 C104.80347984 115.89411126 111.18094204 113.43443346 118 110.375 C118.98935547 109.94058594 119.97871094 109.50617188 120.99804688 109.05859375 C126.55812412 106.60138642 132.02525433 104.01725997 137.4375 101.25 C132.92843682 95.57918141 128.07636868 91.3433858 122.25 87.0625 C120.92995972 86.08639771 120.92995972 86.08639771 119.58325195 85.09057617 C92.48599354 63.87972931 92.48599354 63.87972931 61.4375 53.25 Z M-260.6875 102.5 C-261.74287964 103.16902344 -261.74287964 103.16902344 -262.81958008 103.8515625 C-283.22648465 116.92209123 -302.28022004 131.79131232 -320.19140625 148.09765625 C-321.72913754 149.49352106 -323.2780623 150.87719097 -324.83984375 152.24609375 C-330.33331293 157.0814435 -335.56697349 162.14911969 -340.75 167.3125 C-341.41531738 167.9732251 -342.08063477 168.6339502 -342.76611328 169.31469727 C-347.23448147 173.79694927 -351.43532859 178.45389297 -355.5625 183.25 C-356.48825424 184.2980505 -357.41525674 185.34500029 -358.34375 186.390625 C-364.42225147 193.3094876 -370.13635702 200.46351331 -375.6875 207.8125 C-376.33912109 208.6694043 -376.99074219 209.52630859 -377.66210938 210.40917969 C-378.27119141 211.22418945 -378.88027344 212.03919922 -379.5078125 212.87890625 C-380.04937988 213.60150635 -380.59094727 214.32410645 -381.14892578 215.06860352 C-382.64820612 217.38225979 -383.62291303 219.66400942 -384.5625 222.25 C-372.91094872 228.79183682 -361.16292004 235.06993432 -349.125 240.875 C-347.55504272 241.63731934 -347.55504272 241.63731934 -345.95336914 242.41503906 C-340.88056948 244.83445652 -336.0343218 246.94168818 -330.5625 248.25 C-327.64182439 242.57475355 -325.01231583 236.81090663 -322.45361328 230.96411133 C-303.73025614 188.18380304 -279.89193381 147.76158711 -249.09008789 112.51147461 C-246.82660859 109.89186671 -244.9177546 107.45054477 -243.5625 104.25 C-244.65851169 103.24106869 -245.76463918 102.24311775 -246.875 101.25 C-247.48988281 100.693125 -248.10476563 100.13625 -248.73828125 99.5625 C-253.13428801 96.39963432 -256.82653383 100.0263154 -260.6875 102.5 Z M196.6875 102.25 C196.07390625 102.806875 195.4603125 103.36375 194.828125 103.9375 C194.36921875 104.370625 193.9103125 104.80375 193.4375 105.25 C195.08216674 109.20480557 197.81045747 112.09787637 200.625 115.25 C231.36881598 150.49945639 254.23879346 192.01114736 273.21923828 234.52734375 C275.27037213 239.11136073 277.35527411 243.68004177 279.4375 248.25 C287.20128383 245.95246661 294.3396807 242.59722792 301.59204102 239.05444336 C303.59999682 238.07469982 305.61303605 237.10609112 307.62695312 236.13867188 C316.45164328 231.86991484 324.99014045 227.22198731 333.4375 222.25 C332.22561715 218.95872906 330.92256651 216.27815103 328.78515625 213.5 C328.26147461 212.81558838 327.73779297 212.13117676 327.19824219 211.42602539 C326.63782227 210.70793701 326.07740234 209.98984863 325.5 209.25 C324.92024414 208.50032959 324.34048828 207.75065918 323.74316406 206.97827148 C316.39298596 197.53536225 308.64570609 188.46980018 300.58984375 179.62109375 C299.19397894 178.08336246 297.81030903 176.5344377 296.44140625 174.97265625 C291.6060565 169.47918707 286.53838031 164.24552651 281.375 159.0625 C280.7142749 158.39718262 280.0535498 157.73186523 279.37280273 157.04638672 C274.89055073 152.57801853 270.23360703 148.37717141 265.4375 144.25 C264.3894495 143.32424576 263.34249971 142.39724326 262.296875 141.46875 C230.43280039 111.93951678 230.43280039 111.93951678 196.6875 102.25 Z M-217.97265625 128.3828125 C-218.84792969 129.37023437 -219.72320312 130.35765625 -220.625 131.375 C-221.34453857 132.18590088 -221.34453857 132.18590088 -222.07861328 133.01318359 C-227.51368164 139.21125535 -232.60868097 145.66372904 -237.5625 152.25 C-238.06507324 152.91741211 -238.56764648 153.58482422 -239.08544922 154.27246094 C-260.62951927 183.07397559 -278.22062859 214.30570123 -292.5625 247.25 C-293.04928223 248.34038574 -293.53606445 249.43077148 -294.03759766 250.55419922 C-294.50601074 251.62814941 -294.97442383 252.70209961 -295.45703125 253.80859375 C-295.8847583 254.77982178 -296.31248535 255.7510498 -296.75317383 256.75170898 C-297.86333557 259.33616837 -297.86333557 259.33616837 -296.5625 262.25 C-294.40647049 263.35427823 -294.40647049 263.35427823 -291.67578125 264.16015625 C-290.61206299 264.5051416 -289.54834473 264.85012695 -288.45239258 265.20556641 C-287.27185303 265.57085449 -286.09131348 265.93614258 -284.875 266.3125 C-283.02007935 266.89523682 -283.02007935 266.89523682 -281.12768555 267.48974609 C-239.03662836 281.89810144 -239.03662836 281.89810144 -195.5625 288.25 C-193.7842191 280.83497854 -192.17638175 273.40749521 -190.7537384 265.91609192 C-183.73428547 229.02296482 -175.9033355 190.27761717 -161.41040039 155.48413086 C-160.38508665 153.18080368 -160.38508665 153.18080368 -160.5625 150.25 C-161.26632812 149.95867187 -161.97015625 149.66734375 -162.6953125 149.3671875 C-195.43502247 135.77550634 -195.43502247 135.77550634 -209.765625 127.0625 C-213.33331502 125.44928364 -215.13252453 125.86950307 -217.97265625 128.3828125 Z M159.328125 128.453125 C143.76773461 136.88432045 127.87034031 143.73205335 111.4375 150.25 C113.19319948 156.99813072 115.18068137 163.62489886 117.39257812 170.23681641 C126.05030908 196.23673068 132.64696979 222.777545 138.375 249.5625 C138.56054443 250.42965637 138.74608887 251.29681274 138.93725586 252.19024658 C140.98243998 261.80229139 142.89977995 271.42130081 144.48997498 281.12019348 C144.81556057 284.47287078 144.81556057 284.47287078 146.4375 287.25 C154.572636 287.17901858 162.62033211 285.05878523 170.5 283.25 C171.16412903 283.09860565 171.82825806 282.9472113 172.51251221 282.79122925 C193.54328369 277.9816591 214.36021881 272.29175307 234.9375 265.8125 C236.52280518 265.31762085 236.52280518 265.31762085 238.14013672 264.81274414 C239.0942041 264.50457764 240.04827148 264.19641113 241.03125 263.87890625 C241.86333984 263.61150635 242.69542969 263.34410645 243.55273438 263.06860352 C245.62616854 262.40785528 245.62616854 262.40785528 246.4375 260.25 C245.87727488 258.18840338 245.87727488 258.18840338 244.875 255.859375 C244.49819092 254.93753418 244.12138184 254.01569336 243.7331543 253.06591797 C243.30558838 252.05416504 242.87802246 251.04241211 242.4375 250 C241.99253174 248.94312988 241.54756348 247.88625977 241.08911133 246.79736328 C223.65034169 206.14324999 200.64637118 167.56415679 171.4375 134.25 C170.71175781 133.40179688 169.98601563 132.55359375 169.23828125 131.6796875 C166.88782111 128.91949839 166.88782111 128.91949839 164.4375 126.25 C162.56755908 126.25 160.92515862 127.57312689 159.328125 128.453125 Z M-126.5625 161.25 C-143.31757864 199.6276526 -151.71992019 242.31069772 -159.19921875 283.31640625 C-159.3392482 284.07986862 -159.47927765 284.84333099 -159.62355042 285.62992859 C-160.14496312 288.54861841 -160.5625 291.27827342 -160.5625 294.25 C-135.16551744 297.98997639 -109.74208455 300.728831 -84.125 302.4375 C-82.91996826 302.5214502 -81.71493652 302.60540039 -80.47338867 302.69189453 C-68.45023864 303.43516424 -56.68868563 303.25 -44.5625 303.25 C-44.5625 260.02 -44.5625 216.79 -44.5625 172.25 C-57.7625 170.93 -70.9625 169.61 -84.5625 168.25 C-110.24475 164.1641875 -110.24475 164.1641875 -118.03125 162.1015625 C-121.10190609 161.36107242 -123.44719171 161.17725608 -126.5625 161.25 Z M67.53125 162.421875 C52.8849195 165.47548562 38.31874166 167.95953164 23.4375 169.5625 C22.69508057 169.64326782 21.95266113 169.72403564 21.18774414 169.80725098 C11.27682671 170.8728642 1.39436254 171.58620916 -8.5625 172.25 C-8.5625 215.48 -8.5625 258.71 -8.5625 303.25 C7.38051907 303.25 22.96973344 303.16897273 38.8125 302 C39.73597229 301.93475128 40.65944458 301.86950256 41.61090088 301.80227661 C64.98129177 300.14722117 88.25971002 297.68063943 111.4375 294.25 C110.84198412 288.3915766 110.04820994 282.66158716 108.90625 276.88671875 C108.75484055 276.10986221 108.60343109 275.33300568 108.44743347 274.53260803 C107.95032606 271.99962887 107.44535108 269.46834621 106.9375 266.9375 C106.76143219 266.05896362 106.58536438 265.18042725 106.40396118 264.27526855 C101.33086761 239.10200421 95.14796934 214.32229442 87.6875 189.75 C87.34771622 188.62555481 87.34771622 188.62555481 87.00106812 187.47839355 C84.27673716 178.51215311 81.25088436 169.8270428 77.4375 161.25 C73.8287376 161.25 71.03308695 161.66748419 67.53125 162.421875 Z M-404.5625 251.25 C-438.19584613 304.79986676 -456.8001559 368.27984235 -463.375 430.8125 C-463.49907227 431.96363281 -463.62314453 433.11476563 -463.75097656 434.30078125 C-464.75120407 444.73383273 -464.5625 454.61981999 -464.5625 465.25 C-433.8725 465.25 -403.1825 465.25 -371.5625 465.25 C-371.2325 455.68 -370.9025 446.11 -370.5625 436.25 C-370.20479251 430.54359871 -369.82413184 424.87704549 -369.3125 419.1875 C-369.24936615 418.47630005 -369.1862323 417.7651001 -369.1211853 417.03234863 C-365.44874437 376.11070427 -357.80636444 336.19879991 -346.52490234 296.70556641 C-345.09734906 291.57984617 -343.81347365 286.42129106 -342.5625 281.25 C-343.20574219 280.95867187 -343.84898437 280.66734375 -344.51171875 280.3671875 C-361.23955926 272.77880907 -377.72752612 264.93944054 -393.89428711 256.21826172 C-397.38967407 254.34342876 -400.83183999 252.62636 -404.5625 251.25 Z M348.3828125 252.734375 C347.10443494 253.48119057 345.8313888 254.23717373 344.5625 255 C343.10953417 255.84236926 341.65502899 256.6820874 340.19921875 257.51953125 C339.42497559 257.96635254 338.65073242 258.41317383 337.85302734 258.87353516 C322.85646806 267.41917911 307.35219271 274.59611571 291.4375 281.25 C293.20827029 288.54082517 295.1292629 295.77188562 297.18994141 302.98583984 C312.300998 356.21847534 318.53198837 409.99016278 320.4375 465.25 C351.1275 465.25 381.8175 465.25 413.4375 465.25 C413.46683683 447.94434247 413.46683683 447.94434247 412.25 430.8125 C412.11762939 429.54954102 411.98525879 428.28658203 411.84887695 426.98535156 C405.51124046 369.63703619 387.89366002 314.38104097 360.8125 263.5 C360.22057861 262.38061035 359.62865723 261.2612207 359.01879883 260.10791016 C358.46345459 259.08745605 357.90811035 258.06700195 357.3359375 257.015625 C356.84786621 256.11618164 356.35979492 255.21673828 355.85693359 254.29003906 C353.47320014 250.86408848 352.0282875 250.96291656 348.3828125 252.734375 Z M-309.5625 294.25 C-329.17489361 347.73834622 -337.43770493 408.55616951 -336.5625 465.25 C-329.9625 465.25 -323.3625 465.25 -316.5625 465.25 C-316.8925 466.57 -317.2225 467.89 -317.5625 469.25 C-318.64049329 479.94701037 -315.91778102 491.18415694 -312.5625 501.25 C-320.4825 501.25 -328.4025 501.25 -336.5625 501.25 C-335.12359842 551.61155518 -325.66847406 600.97737401 -311.5625 649.25 C-307.79001089 650.65412293 -305.45660134 649.80989295 -301.7265625 648.51171875 C-300.53724121 648.10872559 -299.34791992 647.70573242 -298.12255859 647.29052734 C-297.48437195 647.07048035 -296.8461853 646.85043335 -296.18865967 646.62371826 C-265.30389121 636.03301305 -233.50332414 628.83245615 -201.5625 622.25 C-201.46185995 615.96628693 -201.80308331 609.92190051 -202.5625 603.6875 C-202.70558594 602.46063477 -202.70558594 602.46063477 -202.8515625 601.20898438 C-203.08394509 599.22211325 -203.32255516 597.23597206 -203.5625 595.25 C-201.87833984 594.4146875 -201.87833984 594.4146875 -200.16015625 593.5625 C-191.7268764 589.2926874 -184.17709959 585.1661198 -177.5625 578.25 C-173.12705717 580.91023059 -171.029408 582.58291589 -169.60986328 587.65136719 C-168.89895866 591.785559 -168.50925521 595.95014437 -168.125 600.125 C-167.96704655 601.59145603 -167.80626542 603.05761041 -167.64257812 604.5234375 C-167.24981718 608.09605895 -166.89572217 611.67127651 -166.5625 615.25 C-156.39718243 614.71753503 -146.33730834 613.83361349 -136.228302 612.63613892 C-120.55543459 610.79940601 -104.87347091 609.54202837 -89.125 608.5625 C-88.15891815 608.50201477 -87.1928363 608.44152954 -86.19747925 608.37921143 C-72.32576638 607.51975406 -58.44797613 606.84310431 -44.5625 606.25 C-44.5625 604.27 -44.5625 602.29 -44.5625 600.25 C-43.87027344 600.22421875 -43.17804688 600.1984375 -42.46484375 600.171875 C-31.02180543 599.50851046 -20.15941639 596.57527199 -9.5625 592.25 C-9.2325 596.87 -8.9025 601.49 -8.5625 606.25 C-7.08080322 606.31993164 -5.59910645 606.38986328 -4.07250977 606.46191406 C32.34512882 608.20178355 68.70459475 610.21227079 104.82446289 615.38671875 C105.62875732 615.50144531 106.43305176 615.61617187 107.26171875 615.734375 C108.26851685 615.88471191 108.26851685 615.88471191 109.2956543 616.03808594 C112.01632366 616.30726877 114.70554388 616.28214353 117.4375 616.25 C117.54819824 615.27877197 117.65889648 614.30754395 117.77294922 613.30688477 C118.19386681 609.61462973 118.61519045 605.92242112 119.03662109 602.23022461 C119.217066 600.64885653 119.39740872 599.0674768 119.57763672 597.48608398 C120.84066924 586.40456122 122.12696993 575.32600747 123.4375 564.25 C124.08887939 565.3625415 124.08887939 565.3625415 124.75341797 566.49755859 C131.21988732 577.39516949 141.08605286 589.20033123 153.7578125 592.93359375 C154.31210937 593.03800781 154.86640625 593.14242188 155.4375 593.25 C155.1075 593.91 154.7775 594.57 154.4375 595.25 C154.14591421 597.27847066 153.90258666 599.31397628 153.68359375 601.3515625 C153.55146484 602.56328125 153.41933594 603.775 153.28320312 605.0234375 C153.08114258 606.92996094 153.08114258 606.92996094 152.875 608.875 C152.73642578 610.15375 152.59785156 611.4325 152.45507812 612.75 C152.11245469 615.91631315 151.77341633 619.08296942 151.4375 622.25 C156.07188312 623.88961435 160.74171629 625.07486666 165.53515625 626.1328125 C167.14266474 626.49432535 168.75008298 626.85623972 170.35742188 627.21850586 C171.19587646 627.40669891 172.03433105 627.59489197 172.89819336 627.78878784 C197.84597762 633.40976452 222.36030051 640.02127151 246.62890625 648.10131836 C247.86769531 648.5113208 249.10648438 648.92132324 250.3828125 649.34375 C251.48125488 649.71177734 252.57969727 650.07980469 253.71142578 650.45898438 C256.44460678 651.38933601 256.44460678 651.38933601 259.4375 651.25 C262.81280127 641.48813302 265.81394386 631.7178234 268.3125 621.6875 C268.47947388 621.0179126 268.64644775 620.3483252 268.81848145 619.65844727 C278.29446997 581.38411074 285.4375 540.73727503 285.4375 501.25 C268.6075 500.755 268.6075 500.755 251.4375 500.25 C251.4375 488.7 251.4375 477.15 251.4375 465.25 C262.6575 465.25 273.8775 465.25 285.4375 465.25 C286.39720049 412.78637311 278.10936029 359.92044517 263.5625 309.5625 C263.2728688 308.55604935 263.2728688 308.55604935 262.97738647 307.52926636 C261.28063758 300.30168852 261.28063758 300.30168852 257.4375 294.25 C256.69741699 294.50056152 255.95733398 294.75112305 255.19482422 295.00927734 C221.15468931 306.45286592 186.594146 315.0048181 151.4375 322.25 C152.15066425 332.89269654 153.29827858 343.46611895 154.5 354.0625 C155.139375 359.734375 155.77875 365.40625 156.4375 371.25 C144.8875 371.25 133.3375 371.25 121.4375 371.25 C121.004375 365.805 121.004375 365.805 120.5625 360.25 C119.94774128 352.80250703 119.31306545 345.35946491 118.4375 337.9375 C118.293125 336.70386719 118.14875 335.47023438 118 334.19921875 C117.60248622 331.07607085 117.60248622 331.07607085 115.4375 328.25 C114.41430664 328.38575439 113.39111328 328.52150879 112.33691406 328.66137695 C71.99119693 333.98454812 32.12026868 336.7302414 -8.5625 338.25 C-8.5625 359.37 -8.5625 380.49 -8.5625 402.25 C-9.8825 401.92 -11.2025 401.59 -12.5625 401.25 C-15.35897131 400.99370426 -18.13571644 400.78618552 -20.9375 400.625 C-22.02224609 400.54765625 -22.02224609 400.54765625 -23.12890625 400.46875 C-30.46840595 400.03924399 -37.0324151 400.71213679 -44.5625 401.25 C-44.5625 380.46 -44.5625 359.67 -44.5625 338.25 C-54.83375 337.8478125 -54.83375 337.8478125 -65.3125 337.4375 C-93.39508197 336.25208958 -121.25955965 334.13954286 -149.13598633 330.52001953 C-150.41884521 330.3548584 -151.7017041 330.18969727 -153.0234375 330.01953125 C-154.14540527 329.87104736 -155.26737305 329.72256348 -156.42333984 329.56958008 C-159.4946337 329.25690908 -162.47781877 329.19274711 -165.5625 329.25 C-167.38688166 337.31802927 -168.34555588 345.40315792 -169.1875 353.625 C-169.3215625 354.88183594 -169.455625 356.13867188 -169.59375 357.43359375 C-170.32095017 364.32754076 -170.32095017 364.32754076 -170.5625 371.25 C-179.1425 371.25 -187.7225 371.25 -196.5625 371.25 C-196.5625 381.81 -196.5625 392.37 -196.5625 403.25 C-200.1925 403.25 -203.8225 403.25 -207.5625 403.25 C-206.08084058 381.57134262 -204.37025177 359.95929581 -201.83300781 338.37597656 C-201.74844833 337.65365845 -201.66388885 336.93134033 -201.57676697 336.18713379 C-201.34848233 334.24904146 -201.11546469 332.31150825 -200.88208008 330.37402344 C-200.49465567 327.1101823 -200.49465567 327.1101823 -200.5625 323.25 C-207.98357228 321.34493464 -215.42592718 319.59533415 -222.90991211 317.95581055 C-252.23872543 311.50548083 -280.99317211 303.48514722 -309.5625 294.25 Z M-464.5625 501.25 C-458.08934716 570.29696368 -440.76821524 633.85064282 -406.5625 694.25 C-401.93451598 693.45698336 -398.44576228 691.67601491 -394.4375 689.3125 C-392.99980166 688.48765653 -391.56095157 687.66481804 -390.12109375 686.84375 C-389.3719873 686.41578125 -388.62288086 685.9878125 -387.85107422 685.546875 C-373.51709925 677.42418724 -358.74923579 670.62134066 -343.5625 664.25 C-345.31090298 657.06091446 -347.08307047 649.88703239 -349.10546875 642.76953125 C-362.27085229 596.15061983 -367.3518664 549.67228641 -371.5625 501.25 C-402.2525 501.25 -432.9425 501.25 -464.5625 501.25 Z M320.4375 501.25 C319.1175 516.43 317.7975 531.61 316.4375 547.25 C311.89985377 584.43348991 305.90208877 622.91725522 293.31982422 658.40209961 C292.2402079 661.38989672 292.2402079 661.38989672 292.4375 665.25 C293.38254395 665.70213867 294.32758789 666.15427734 295.30126953 666.62011719 C312.91095349 675.05632093 330.43917638 683.50496902 347.40576172 693.19116211 C349.69357074 694.38345095 352.03001784 695.32684392 354.4375 696.25 C388.88013384 634.00456994 406.77611839 572.30473713 413.4375 501.25 C382.7475 501.25 352.0575 501.25 320.4375 501.25 Z M-8.5625 641.25 C-8.5625 685.14 -8.5625 729.03 -8.5625 774.25 C11.7325 776.23 11.7325 776.23 32.4375 778.25 C45.30713157 780.34386863 57.90342439 782.5585251 70.53613281 785.67944336 C73.26064271 786.21522085 75.67105851 786.35980468 78.4375 786.25 C90.23637661 752.6712113 99.55041086 718.77473482 106.5625 683.875 C106.75508392 682.92110382 106.94766785 681.96720764 107.14608765 680.98440552 C109.12495103 671.10380317 110.99906482 661.34438624 111.4375 651.25 C84.40141064 646.42734622 56.83152604 643.89194146 29.4375 642.25 C27.99818115 642.16322998 27.99818115 642.16322998 26.52978516 642.07470703 C23.79110987 641.91505756 21.05217282 641.76643042 18.3125 641.625 C17.55654541 641.58479736 16.80059082 641.54459473 16.02172852 641.50317383 C7.81296472 641.12601203 -0.3182385 641.25 -8.5625 641.25 Z M-74.91357422 641.75756836 C-75.95623444 641.81604446 -75.95623444 641.81604446 -77.0199585 641.8757019 C-77.73524719 641.91672028 -78.45053589 641.95773865 -79.1875 642 C-79.93775452 642.0419046 -80.68800903 642.0838092 -81.46099854 642.12698364 C-105.03730298 643.46711236 -128.58176732 645.84811315 -152 648.875 C-153.3310376 649.04116821 -153.3310376 649.04116821 -154.68896484 649.21069336 C-156.65840465 649.48360666 -158.61394512 649.85464104 -160.5625 650.25 C-162.29856731 653.72213461 -160.74910432 657.62580467 -160.04296875 661.3203125 C-159.86922226 662.25182632 -159.69547577 663.18334015 -159.51646423 664.14308167 C-158.93726606 667.22230624 -158.34530004 670.29884955 -157.75 673.375 C-157.54687195 674.43030914 -157.3437439 675.48561829 -157.13446045 676.57290649 C-151.73314322 704.48779774 -144.97797021 731.92855678 -136.6875 759.125 C-136.45838928 759.87671478 -136.22927856 760.62842957 -135.9932251 761.40292358 C-133.51317963 769.48931314 -130.89935274 777.46713686 -127.5625 785.25 C-120.27031432 784.55988779 -113.18560139 783.27622331 -106 781.875 C-97.12978673 780.19415623 -88.27215195 778.6793562 -79.3125 777.5625 C-78.4661499 777.45566895 -77.6197998 777.34883789 -76.74780273 777.23876953 C-66.04454438 775.96907607 -55.30215351 775.18388291 -44.5625 774.25 C-44.5625 730.36 -44.5625 686.47 -44.5625 641.25 C-59.75469818 641.2192312 -59.75469818 641.2192312 -74.91357422 641.75756836 Z M-208.7578125 658.6484375 C-209.79683212 658.8737767 -209.79683212 658.8737767 -210.85684204 659.10366821 C-213.13572982 659.60216998 -215.41177695 660.11225445 -217.6875 660.625 C-218.86850281 660.88893555 -218.86850281 660.88893555 -220.07336426 661.15820312 C-242.90564694 666.28332556 -265.48820999 672.47296811 -287.75 679.6875 C-288.74805664 680.00525391 -289.74611328 680.32300781 -290.77441406 680.65039062 C-291.66741211 680.95009766 -292.56041016 681.24980469 -293.48046875 681.55859375 C-294.25156982 681.81439209 -295.0226709 682.07019043 -295.81713867 682.33374023 C-297.92525783 683.18329581 -297.92525783 683.18329581 -298.5625 686.25 C-297.91996679 688.6048301 -297.91996679 688.6048301 -296.78125 691.17578125 C-296.35924316 692.18479492 -295.93723633 693.19380859 -295.50244141 694.23339844 C-294.78967041 695.88130371 -294.78967041 695.88130371 -294.0625 697.5625 C-293.57056152 698.70879883 -293.07862305 699.85509766 -292.57177734 701.03613281 C-274.76318827 741.89404568 -251.98226254 780.6343841 -222.5625 814.25 C-221.33181358 815.68619911 -220.1023454 817.12344468 -218.875 818.5625 C-217.7303125 819.8928125 -217.7303125 819.8928125 -216.5625 821.25 C-210.66001653 819.60552699 -205.59629513 816.66071021 -200.25 813.75 C-190.56305414 808.54450882 -180.71103607 804.29592187 -170.3737793 800.54882812 C-168.86231323 799.98325195 -168.86231323 799.98325195 -167.3203125 799.40625 C-166.4245752 799.08462891 -165.52883789 798.76300781 -164.60595703 798.43164062 C-162.46469596 797.43394774 -162.46469596 797.43394774 -161.64282227 795.52099609 C-161.52828388 792.28258862 -162.45923928 789.81833094 -163.51953125 786.7578125 C-163.97252121 785.42004143 -164.42513981 784.08214458 -164.87744141 782.74414062 C-165.12117493 782.03491455 -165.36490845 781.32568848 -165.61602783 780.5949707 C-179.29776713 740.57629584 -188.58307118 698.93134415 -195.5625 657.25 C-200.18069172 657.09172768 -204.24753346 657.66692902 -208.7578125 658.6484375 Z M146.4375 657.25 C146.24752441 658.3023584 146.05754883 659.3547168 145.86181641 660.43896484 C137.95822442 703.98874928 129.10810042 748.10963206 113.3293457 789.60888672 C111.63579716 793.85533067 111.63579716 793.85533067 112.4375 798.25 C115.28094154 799.52021339 118.07882937 800.62535661 121 801.6875 C132.34576783 806.00197057 143.06323676 811.38072431 153.84960938 816.92382812 C157.36588717 818.72575463 160.9002101 820.48973725 164.4375 822.25 C172.29135953 813.95559516 179.57124292 805.37892242 186.4375 796.25 C187.19135986 795.24888184 187.19135986 795.24888184 187.96044922 794.22753906 C212.60460142 761.28163288 234.00550182 724.24992455 247.4375 685.25 C240.05803536 681.69449498 232.43409563 679.12330812 224.625 676.6875 C223.9554126 676.47745331 223.2858252 676.26740662 222.59594727 676.05099487 C209.66003484 672.01823134 196.58101183 668.5963992 183.4375 665.3125 C182.50932465 665.07957245 181.58114929 664.8466449 180.62484741 664.60665894 C169.28600389 661.77317182 157.95572238 659.24471337 146.4375 657.25 Z M-345.1875 702.4375 C-346.34000244 702.96980225 -347.49250488 703.50210449 -348.67993164 704.05053711 C-356.91532863 707.90412585 -364.99803954 711.99045725 -373 716.3125 C-374.01723145 716.85994873 -375.03446289 717.40739746 -376.08251953 717.97143555 C-381.76400648 721.01954644 -381.76400648 721.01954644 -386.5625 725.25 C-366.50415499 753.87991544 -343.36170092 781.65651309 -316.5625 804.25 C-315.60859375 805.09304688 -314.6546875 805.93609375 -313.671875 806.8046875 C-286.67654962 831.17187419 -286.67654962 831.17187419 -255.5625 849.25 C-252.15110642 848.96078744 -250.30408406 847.43950867 -247.8125 845.1875 C-246.89210938 844.36572266 -246.89210938 844.36572266 -245.953125 843.52734375 C-245.49421875 843.10582031 -245.0353125 842.68429687 -244.5625 842.25 C-247.62678814 837.9901752 -250.79765999 833.92148245 -254.3359375 830.04296875 C-258.36858359 825.53379615 -262.07466904 820.84944411 -265.6875 816 C-266.32929199 815.13938965 -266.97108398 814.2787793 -267.63232422 813.39208984 C-294.06819616 777.61524085 -314.46383728 738.22907353 -331.5625 697.25 C-336.2203447 697.25 -341.03110801 700.51759047 -345.1875 702.4375 Z M279.4375 698.25 C279.20788574 698.82516357 278.97827148 699.40032715 278.74169922 699.99291992 C259.8711599 746.95723968 235.51483145 792.37443388 202.33203125 830.87890625 C201.82663818 831.46599365 201.32124512 832.05308105 200.80053711 832.65795898 C199.83310996 833.77426992 198.85898747 834.88482553 197.87719727 835.98852539 C195.57103007 838.63782915 193.86266593 840.69561284 193.4375 844.25 C194.45481 845.31546668 195.50264251 846.35184753 196.5625 847.375 C197.14257812 847.95507812 197.72265625 848.53515625 198.3203125 849.1328125 C200.47566546 850.57298913 200.47566546 850.57298913 203.22875977 849.53588867 C206.45543558 848.2428124 209.02666856 846.74857264 211.89453125 844.79296875 C213.4273877 843.75197021 213.4273877 843.75197021 214.99121094 842.68994141 C216.06661133 841.94663574 217.14201172 841.20333008 218.25 840.4375 C218.80385376 840.05728699 219.35770752 839.67707397 219.92834473 839.28533936 C237.2335956 827.40489487 253.54421975 814.53374234 269.06640625 800.40234375 C270.60413754 799.00647894 272.1530623 797.62280903 273.71484375 796.25390625 C279.20831293 791.4185565 284.44197349 786.35088031 289.625 781.1875 C290.29031738 780.5267749 290.95563477 779.8660498 291.64111328 779.18530273 C296.10948147 774.70305073 300.31032859 770.04610703 304.4375 765.25 C305.36325424 764.2019495 306.29025674 763.15499971 307.21875 762.109375 C315.30638501 752.90046285 322.64235342 743.18110323 329.91040039 733.31787109 C330.96043799 731.89599763 332.03690849 730.49338799 333.13452148 729.10791016 C334.62889472 727.35530283 334.62889472 727.35530283 334.4375 725.25 C321.3486272 717.68430622 308.17853316 710.44110265 294.5625 703.875 C293.39871826 703.31014893 292.23493652 702.74529785 291.03588867 702.16333008 C285.47195229 699.26385609 285.47195229 699.26385609 279.4375 698.25 Z M-8.5625 809.25 C-8.5625 842.58 -8.5625 875.91 -8.5625 910.25 C23.86772162 896.35133359 42.36879686 863.61957205 58.1875 833.75 C58.7134375 832.76443115 59.239375 831.7788623 59.78125 830.76342773 C60.26078125 829.84118408 60.7403125 828.91894043 61.234375 827.96875 C61.66073242 827.15341797 62.08708984 826.33808594 62.52636719 825.49804688 C63.687914 823.03642952 63.687914 823.03642952 63.4375 819.25 C40.13874995 813.14949163 15.55388438 809.25 -8.5625 809.25 Z M-96.0625 814.8125 C-97.83210083 815.12707153 -97.83210083 815.12707153 -99.63745117 815.44799805 C-104.52243403 816.35482557 -108.98289693 817.27787983 -113.5625 819.25 C-100.69128685 851.49823949 -78.36753929 891.29092453 -46.5625 908.25 C-45.9025 908.25 -45.2425 908.25 -44.5625 908.25 C-44.5625 875.58 -44.5625 842.91 -44.5625 809.25 C-61.80269319 809.25 -79.10959404 811.78914428 -96.0625 814.8125 Z M-155.61328125 831.19140625 C-156.61617188 831.60729004 -157.6190625 832.02317383 -158.65234375 832.45166016 C-159.71582031 832.9007373 -160.77929688 833.34981445 -161.875 833.8125 C-163.49148438 834.48998291 -163.49148438 834.48998291 -165.140625 835.18115234 C-173.12211158 838.55986988 -180.9096323 842.18104569 -188.5625 846.25 C-178.67534256 868.84215475 -134.65983626 887.44007646 -113.5625 896.25 C-112.23785079 896.61632412 -110.90662046 896.96324388 -109.5625 897.25 C-110.9335294 894.38001063 -112.48051393 891.75869085 -114.25 889.1171875 C-124.54009967 873.61228789 -133.5220312 857.70896961 -141.70166016 841.00390625 C-142.97386098 838.41187824 -144.26832082 835.83110805 -145.5625 833.25 C-146.22916667 831.91666667 -146.89583333 830.58333333 -147.5625 829.25 C-150.8450768 829.25 -152.59985539 829.93875485 -155.61328125 831.19140625 Z M97.4375 830.25 C97.15140869 830.8577124 96.86531738 831.4654248 96.57055664 832.09155273 C88.01809152 850.21922736 79.52310825 867.67561081 68.13354492 884.20947266 C67.55451416 885.05300293 66.9754834 885.8965332 66.37890625 886.765625 C65.86013916 887.51102539 65.34137207 888.25642578 64.80688477 889.02441406 C63.37009968 891.35954204 62.38216432 893.68078432 61.4375 896.25 C89.39447014 884.54795732 115.11764549 868.89730727 137.4375 848.25 C135.18926225 845.75764222 133.0307843 844.38229951 130.0078125 842.9453125 C129.13560059 842.52878418 128.26338867 842.11225586 127.36474609 841.68310547 C126.44000488 841.25143066 125.51526367 840.81975586 124.5625 840.375 C123.15025146 839.71008545 123.15025146 839.71008545 121.70947266 839.03173828 C110.00520924 832.93390603 110.00520924 832.93390603 97.4375 830.25 Z " fill="#FFFEFE" transform="translate(524.5625,26.75)"/>
<path d="M0 0 C7.52872474 6.17775148 10.40210116 14.46993033 12.25 23.8125 C12.64751211 28.40661793 12.66771195 32.97273987 12.65625 37.58203125 C12.66708618 38.86180344 12.67792236 40.14157562 12.68908691 41.46012878 C12.72891002 46.20394816 12.74312021 50.9475766 12.75531006 55.69152832 C12.76870451 60.36356696 12.80404329 65.03512673 12.84375 69.70703125 C12.84072876 70.93210892 12.83770752 72.15718658 12.83459473 73.41938782 C12.63948437 81.71256488 12.63948437 81.71256488 16.25 88.8125 C19.22 89.4725 22.19 90.1325 25.25 90.8125 C25.25 99.0625 25.25 107.3125 25.25 115.8125 C14.77074334 115.8125 6.43150243 115.53951311 -1.75 108.8125 C-8.75 101.64142057 -8.75 101.64142057 -8.75 98.8125 C-12.34342374 100.88984729 -15.63332801 103.1788672 -18.9375 105.6875 C-31.17565903 114.62382015 -42.52600248 118.19649977 -57.75 116.8125 C-64.35795012 115.23233801 -70.41958489 112.13714307 -74.75 106.8125 C-81.65184569 95.32166117 -83.2920228 82.24681357 -80.44140625 69.26953125 C-78.64418698 62.88280289 -75.81165689 58.16787918 -70.75 53.8125 C-70.25886719 53.38066406 -69.76773437 52.94882812 -69.26171875 52.50390625 C-60.82926714 45.72171963 -50.33467053 45.33425913 -39.9375 45.5 C-38.80199707 45.50837891 -37.66649414 45.51675781 -36.49658203 45.52539062 C-28.44319847 45.64055413 -20.65790663 46.20216265 -12.75 47.8125 C-12.83782642 44.97782658 -12.94480902 42.14596584 -13.0625 39.3125 C-13.08505859 38.52101563 -13.10761719 37.72953125 -13.13085938 36.9140625 C-13.40504007 30.8322361 -14.17449095 24.57197398 -18.5 19.9375 C-32.73850335 12.81824833 -49.47841742 17.70114457 -63.76171875 22.44921875 C-65.09198606 22.90118027 -66.42173199 23.35469608 -67.75 23.8125 C-68.95502099 20.56872826 -70.13588782 17.31667311 -71.3125 14.0625 C-71.65474609 13.14210938 -71.99699219 12.22171875 -72.34960938 11.2734375 C-72.66865234 10.38398438 -72.98769531 9.49453125 -73.31640625 8.578125 C-73.61490479 7.76118164 -73.91340332 6.94423828 -74.22094727 6.10253906 C-74.81436141 3.53390749 -74.81873976 2.21969199 -73.75 -0.1875 C-71.08512832 -1.45192287 -68.67127461 -2.38313165 -65.875 -3.25 C-64.67617188 -3.63406006 -64.67617188 -3.63406006 -63.453125 -4.02587891 C-42.69687966 -10.37480052 -18.61321194 -13.2251769 0 0 Z M-53.1875 70.25 C-55.94515103 74.7725477 -56.10899613 78.51730702 -55.75 83.8125 C-54.33391331 87.85846198 -53.08941342 91.07449753 -49.75 93.8125 C-43.20045704 95.92871224 -36.88658459 94.50012225 -30.75 91.8125 C-26.90451677 89.70676642 -23.33206206 87.33523273 -19.75 84.8125 C-19.0075 84.36132812 -18.265 83.91015625 -17.5 83.4453125 C-15.39447951 82.01050217 -14.09831175 80.98328192 -12.75 78.8125 C-12.18601816 74.7445199 -12.3343956 70.88938123 -12.75 66.8125 C-34.26439787 62.59679906 -34.26439787 62.59679906 -53.1875 70.25 Z " fill="#FFFEFE" transform="translate(527.75,473.1875)"/>
<path d="M0 0 C-1.11265908 3.64971745 -2.24216565 7.29399906 -3.375 10.9375 C-3.85066406 12.49887695 -3.85066406 12.49887695 -4.3359375 14.09179688 C-4.8 15.57583008 -4.8 15.57583008 -5.2734375 17.08984375 C-5.55622559 18.00628662 -5.83901367 18.92272949 -6.13037109 19.86694336 C-7 22 -7 22 -9 23 C-11.06887505 22.30549095 -13.10709095 21.51854143 -15.125 20.6875 C-27.39501258 15.83062002 -40.51047987 12.51777597 -53.203125 17.94140625 C-55.17600798 18.91557312 -55.17600798 18.91557312 -56.3125 21.125 C-57.27989636 25.1704757 -56.85747339 27.9105115 -56 32 C-53.56490506 35.51066691 -49.7868514 36.24493044 -45.875 37.375 C-45.17286377 37.58777588 -44.47072754 37.80055176 -43.74731445 38.01977539 C-40.02893325 39.13953156 -36.29661083 40.19881269 -32.55078125 41.22265625 C-18.69996013 45.04346608 -7.75447743 49.51485189 0.34375 62.0859375 C4.77213346 70.59476 5.06969038 81.50029064 2.78125 90.69921875 C-0.18675347 99.43998898 -5.59630912 106.76926524 -13.57421875 111.5390625 C-33.7404674 121.37766027 -58.65607843 117.98700806 -79.22216797 110.98999023 C-81.83144753 110.03781995 -84.41339576 109.01214949 -87 108 C-84.69 100.74 -82.38 93.48 -80 86 C-75.60817895 86.73197018 -72.03077061 87.55745086 -67.875 88.9375 C-53.46546245 93.43536927 -39.45478467 95.44102272 -25.5 88.8125 C-23.12931566 85.94792309 -22.80173245 82.60846941 -23 79 C-23.8761722 76.05752653 -24.45843971 74.40657843 -26.94335938 72.54101562 C-33.63202392 69.37900253 -40.33739566 67.31452643 -47.5 65.5 C-60.24755646 62.27061903 -71.80351577 58.49758744 -79.3125 46.98828125 C-84.3262912 37.60585581 -85.58416343 27.19867603 -82.875 16.875 C-79.83128276 7.91452403 -74.19179195 0.31468721 -65.7890625 -4.18359375 C-44.47367059 -13.59961639 -20.68515103 -8.37588138 0 0 Z " fill="#FFFEFE" transform="translate(328,473)"/>
<path d="M0 0 C8.91 0 17.82 0 27 0 C27 10.56 27 21.12 27 32 C39.54 32 52.08 32 65 32 C65 39.59 65 47.18 65 55 C52.46 55 39.92 55 27 55 C27.09086303 66.22870745 27.09086303 66.22870745 27.20898438 77.45703125 C27.26323374 82.03919346 27.31434641 86.62123531 27.34643555 91.20361328 C27.37251875 94.89965759 27.41295576 98.59529587 27.46318626 102.2910881 C27.47982125 103.69836741 27.49135648 105.10571689 27.49761391 106.5130806 C27.50729081 108.49011701 27.53707786 110.46702359 27.56762695 112.44384766 C27.58428154 114.12929184 27.58428154 114.12929184 27.60127258 115.8487854 C28.16530903 120.30646706 29.63937394 123.72715626 32.9375 126.8125 C41.72797633 131.87368334 52.91939055 128.39113227 62 126 C63.00674459 129.26879616 64.00422489 132.5403471 65 135.8125 C65.28617187 136.74126953 65.57234375 137.67003906 65.8671875 138.62695312 C66.27324219 139.9659668 66.27324219 139.9659668 66.6875 141.33203125 C66.93886719 142.15421143 67.19023437 142.9763916 67.44921875 143.82348633 C68 146 68 146 68 149 C53.91142749 154.6136285 37.04523768 158.38556908 22.23828125 153.03515625 C13.40463893 148.94978938 6.96525109 143.24759674 3.25 134.125 C0.14622897 124.34764586 -0.27386317 115.02156272 -0.1953125 104.8046875 C-0.19157392 103.36166583 -0.18873095 101.91864159 -0.18673706 100.47561646 C-0.179167 96.7109453 -0.15957702 92.94643293 -0.1373291 89.18182373 C-0.11672635 85.32696682 -0.10770475 81.47208381 -0.09765625 77.6171875 C-0.07632356 70.07804485 -0.04119708 62.53906507 0 55 C-6.6 55 -13.2 55 -20 55 C-20 47.41 -20 39.82 -20 32 C-13.4 32 -6.8 32 0 32 C0 21.44 0 10.88 0 0 Z " fill="#FFFEFE" transform="translate(365,435)"/>
<path d="M0 0 C8.58 0 17.16 0 26 0 C26.33 10.23 26.66 20.46 27 31 C45.315 31.495 45.315 31.495 64 32 C64 39.59 64 47.18 64 55 C51.79 55.33 39.58 55.66 27 56 C26.95388358 63.47086055 26.91411877 70.94121948 26.89013672 78.41210938 C26.88013024 80.94923585 26.86652089 83.48635095 26.84912109 86.0234375 C26.82463621 89.68752873 26.81346299 93.35146638 26.8046875 97.015625 C26.79436493 98.13487366 26.78404236 99.25412231 26.77340698 100.4072876 C26.70940392 113.21570771 26.70940392 113.21570771 30.75 125.125 C35.42608915 129.02174096 40.30779644 129.36812384 46.1875 129.26953125 C51.26222223 128.7832037 56.11375763 127.41046172 61 126 C68 143.85 68 143.85 68 149 C52.63730119 155.12130746 35.87549481 158.06700805 19.90625 152.375 C10.54922424 147.94802007 5.52868934 140.54481543 2 131 C-0.3225018 122.84375373 -0.25771454 114.87184921 -0.1953125 106.46484375 C-0.19157537 104.97555228 -0.18873171 103.48625832 -0.18673706 101.9969635 C-0.17915567 98.10569287 -0.15955544 94.21457511 -0.1373291 90.32336426 C-0.11675127 86.34124824 -0.10770999 82.35910716 -0.09765625 78.37695312 C-0.07630347 70.58455815 -0.04116721 62.7923201 0 55 C-6.6 55 -13.2 55 -20 55 C-20 47.41 -20 39.82 -20 32 C-13.4 32 -6.8 32 0 32 C0 21.44 0 10.88 0 0 Z " fill="#FFFEFE" transform="translate(675,435)"/>
<path d="M0 0 C0 8.91 0 17.82 0 27 C-4.08375 27.5878125 -4.08375 27.5878125 -8.25 28.1875 C-16.02034814 29.42375539 -23.00058293 31.288467 -30 35 C-30.80368011 35.266418 -31.60736023 35.532836 -32.43539429 35.80732727 C-35.69150705 37.17001133 -37.6191304 38.36720041 -40 41 C-41.52692886 47.2200521 -41.30517196 53.37063196 -41.1953125 59.7421875 C-41.19910147 61.59450655 -41.20729231 63.44682139 -41.21969604 65.29910278 C-41.24047801 70.1627957 -41.20161761 75.02424008 -41.15020752 79.88763428 C-41.10829433 84.85480378 -41.12295437 89.82177367 -41.1328125 94.7890625 C-41.14382059 104.52688584 -41.08657473 114.26255476 -41 124 C-49.91 124 -58.82 124 -68 124 C-68 84.07 -68 44.14 -68 3 C-59.75 3 -51.5 3 -43 3 C-43 8.94 -43 14.88 -43 21 C-41.411875 19.659375 -39.82375 18.31875 -38.1875 16.9375 C-26.74778244 7.60973029 -15.18332642 0 0 0 Z " fill="#FFFEFE" transform="translate(646,464)"/>
</svg>
