<svg version="1.1" id="Layer_1" xmlns="http://www.w3.org/2000/svg" xmlns:xlink="http://www.w3.org/1999/xlink" x="0px" y="0px"
	 width="100%" viewBox="0 0 348 501" enable-background="new 0 0 348 501" xml:space="preserve">
<path fill="#FFFFFF" opacity="1.000000" stroke="none" 
	d="
M166.000000,502.000000 
	C110.666664,502.000000 55.833332,502.000000 1.000000,502.000000 
	C1.000000,335.000000 1.000000,168.000000 1.000000,1.000000 
	C117.000000,1.000000 233.000000,1.000000 349.000000,1.000000 
	C349.000000,168.000000 349.000000,335.000000 349.000000,502.000000 
	C288.166656,502.000000 227.333328,502.000000 166.000000,502.000000 
M133.336868,482.638214 
	C143.787125,485.681488 149.704819,475.520050 145.565506,467.277771 
	C144.892792,465.938202 144.184479,464.613708 143.575439,463.245392 
	C138.253922,451.289551 132.951248,439.325317 127.503334,427.048859 
	C128.871384,426.699890 130.110336,426.248444 131.386597,426.080322 
	C139.428452,425.020905 147.551727,424.418060 155.513489,422.939575 
	C191.682343,416.222992 221.215012,398.373413 243.521622,369.071991 
	C267.401001,337.704590 280.123352,301.528442 287.989014,263.383881 
	C293.787079,235.265961 297.713684,206.904037 299.124512,178.193512 
	C300.166840,156.981094 302.073547,135.805023 302.809235,114.585518 
	C303.449829,96.107788 303.170044,77.589378 302.907684,59.094463 
	C302.828552,53.515575 301.923737,47.835194 300.556213,42.413403 
	C298.311340,33.513256 292.885132,27.058260 283.304352,26.033583 
	C277.832275,25.448339 272.019165,25.597755 266.666992,26.792870 
	C248.518051,30.845421 232.754105,40.331593 217.349564,50.218513 
	C180.150818,74.093369 147.554108,103.263351 118.679375,136.705643 
	C103.043739,154.814621 89.515137,174.252213 79.541603,196.034286 
	C71.026901,214.630280 67.891319,233.873123 72.789474,254.134369 
	C75.683632,266.106079 83.153351,272.980682 94.777336,276.012238 
	C112.425316,280.614899 128.819412,276.551178 144.175156,268.082550 
	C166.665665,255.679153 184.410400,237.670013 200.358185,217.874741 
	C221.288040,191.895523 238.783539,163.653687 254.423950,134.232132 
	C257.684174,128.099228 261.008362,122.000320 264.303101,115.885742 
	C263.975494,127.408737 263.049591,138.631668 262.021576,149.845230 
	C261.007782,160.904373 260.263824,172.006134 258.730469,182.995560 
	C256.488708,199.061722 253.888412,215.087631 251.011871,231.053391 
	C245.305450,262.725708 237.205978,293.718262 221.782913,322.242950 
	C208.000031,347.734100 189.423523,368.416107 161.817520,379.661011 
	C145.951630,386.123749 129.458694,388.453400 111.945778,388.358734 
	C112.751190,387.053772 113.369049,386.123352 113.917274,385.153564 
	C119.884384,374.597900 125.959320,364.100525 131.744446,353.445862 
	C134.245499,348.839630 132.767944,343.458954 128.939392,341.036285 
	C124.561928,338.266235 118.879951,339.221069 115.491058,343.196320 
	C114.215950,344.692078 112.859894,346.164124 111.337837,347.396332 
	C104.368332,353.038910 97.192101,358.432831 90.340530,364.212891 
	C77.629013,374.936371 64.464676,384.448639 46.881207,385.130493 
	C42.365372,385.305603 38.376961,390.085419 39.153130,394.631744 
	C40.876488,404.726074 44.507999,413.699341 54.981556,418.243744 
	C59.666531,420.276489 63.980453,423.214508 68.334541,425.946075 
	C72.968613,428.853241 77.291069,432.281708 82.029480,434.993469 
	C96.392570,443.213501 108.959419,453.069031 116.952553,468.144257 
	C120.309586,474.475677 125.719070,479.428894 133.336868,482.638214 
z"/>
<path fill="#FFC7C2" opacity="1.000000" stroke="none" 
	d="
M132.973846,482.468079 
	C125.719070,479.428894 120.309586,474.475677 116.952553,468.144257 
	C108.959419,453.069031 96.392570,443.213501 82.029480,434.993469 
	C77.291069,432.281708 72.968613,428.853241 68.334541,425.946075 
	C63.980453,423.214508 59.666531,420.276489 54.981556,418.243744 
	C44.507999,413.699341 40.876488,404.726074 39.153130,394.631744 
	C38.376961,390.085419 42.365372,385.305603 46.881207,385.130493 
	C64.464676,384.448639 77.629013,374.936371 90.340530,364.212891 
	C97.192101,358.432831 104.368332,353.038910 111.337837,347.396332 
	C112.859894,346.164124 114.215950,344.692078 115.491058,343.196320 
	C118.879951,339.221069 124.561928,338.266235 128.939392,341.036285 
	C132.767944,343.458954 134.245499,348.839630 131.744446,353.445862 
	C125.959320,364.100525 119.884384,374.597900 113.917274,385.153564 
	C113.369049,386.123352 112.751190,387.053772 111.945778,388.358734 
	C129.458694,388.453400 145.951630,386.123749 161.817520,379.661011 
	C189.423523,368.416107 208.000031,347.734100 221.782913,322.242950 
	C237.205978,293.718262 245.305450,262.725708 251.011871,231.053391 
	C253.888412,215.087631 256.488708,199.061722 258.730469,182.995560 
	C260.263824,172.006134 261.007782,160.904373 262.021576,149.845230 
	C263.049591,138.631668 263.975494,127.408737 264.303101,115.885742 
	C261.008362,122.000320 257.684174,128.099228 254.423950,134.232132 
	C238.783539,163.653687 221.288040,191.895523 200.358185,217.874741 
	C184.410400,237.670013 166.665665,255.679153 144.175156,268.082550 
	C128.819412,276.551178 112.425316,280.614899 94.777336,276.012238 
	C83.153351,272.980682 75.683632,266.106079 72.789474,254.134369 
	C67.891319,233.873123 71.026901,214.630280 79.541603,196.034286 
	C89.515137,174.252213 103.043739,154.814621 118.679375,136.705643 
	C147.554108,103.263351 180.150818,74.093369 217.349564,50.218513 
	C232.754105,40.331593 248.518051,30.845421 266.666992,26.792870 
	C272.019165,25.597755 277.832275,25.448339 283.304352,26.033583 
	C292.885132,27.058260 298.311340,33.513256 300.556213,42.413403 
	C301.923737,47.835194 302.828552,53.515575 302.907684,59.094463 
	C303.170044,77.589378 303.449829,96.107788 302.809235,114.585518 
	C302.073547,135.805023 300.166840,156.981094 299.124512,178.193512 
	C297.713684,206.904037 293.787079,235.265961 287.989014,263.383881 
	C280.123352,301.528442 267.401001,337.704590 243.521622,369.071991 
	C221.215012,398.373413 191.682343,416.222992 155.513489,422.939575 
	C147.551727,424.418060 139.428452,425.020905 131.386597,426.080322 
	C130.110336,426.248444 128.871384,426.699890 127.503334,427.048859 
	C132.951248,439.325317 138.253922,451.289551 143.575439,463.245392 
	C144.184479,464.613708 144.892792,465.938202 145.565506,467.277771 
	C149.704819,475.520050 143.787125,485.681488 132.973846,482.468079 
M194.518082,111.000923 
	C185.084808,119.129356 175.393707,126.980125 166.275345,135.447662 
	C150.377151,150.211090 136.312149,166.599304 125.205818,185.319977 
	C116.882881,199.348999 111.014809,214.242935 110.985039,230.905273 
	C110.971725,238.355392 113.038101,240.523346 120.500298,239.921829 
	C123.372910,239.690247 126.522659,238.815048 128.889969,237.244217 
	C133.852692,233.951157 138.682663,230.326218 143.032623,226.265030 
	C159.119934,211.245682 172.797256,194.098404 186.162659,176.682755 
	C208.352127,147.768997 228.637802,117.597862 246.449356,85.789047 
	C249.532455,80.283089 252.246872,74.570663 255.131592,68.953606 
	C254.655441,68.519936 254.179291,68.086266 253.703140,67.652596 
	C234.151047,81.942902 214.598953,96.233200 194.518082,111.000923 
z"/>
<path fill="#FFFFFE" opacity="1.000000" stroke="none" 
	d="
M194.782471,110.762215 
	C214.598953,96.233200 234.151047,81.942902 253.703140,67.652596 
	C254.179291,68.086266 254.655441,68.519936 255.131592,68.953606 
	C252.246872,74.570663 249.532455,80.283089 246.449356,85.789047 
	C228.637802,117.597862 208.352127,147.768997 186.162659,176.682755 
	C172.797256,194.098404 159.119934,211.245682 143.032623,226.265030 
	C138.682663,230.326218 133.852692,233.951157 128.889969,237.244217 
	C126.522659,238.815048 123.372910,239.690247 120.500298,239.921829 
	C113.038101,240.523346 110.971725,238.355392 110.985039,230.905273 
	C111.014809,214.242935 116.882881,199.348999 125.205818,185.319977 
	C136.312149,166.599304 150.377151,150.211090 166.275345,135.447662 
	C175.393707,126.980125 185.084808,119.129356 194.782471,110.762215 
z"/>
</svg>