<svg version="1.1" id="Layer_1" xmlns="http://www.w3.org/2000/svg" xmlns:xlink="http://www.w3.org/1999/xlink" x="0px" y="0px"
	 width="100%" viewBox="0 0 1262 618" enable-background="new 0 0 1262 618" xml:space="preserve">
<path fill="#FFC7C2" opacity="1.000000" stroke="none" 
	d="
M349.000000,619.000000 
	C233.013168,619.000000 117.026329,619.000000 1.019747,619.000000 
	C1.019747,413.036530 1.019747,207.073090 1.019747,1.054814 
	C421.582397,1.054814 842.164795,1.054814 1262.873535,1.054814 
	C1262.873535,206.892258 1262.873535,412.784637 1262.873535,619.000000 
	C989.972046,619.000000 716.943970,619.000000 443.315430,618.684082 
	C438.150482,610.264771 433.606537,602.149780 429.010651,594.064331 
	C427.359344,591.159241 426.607605,588.777649 429.142731,585.517151 
	C432.165527,581.629395 429.722809,577.649902 424.815125,576.899536 
	C423.403748,576.683716 421.280670,575.641846 420.976837,574.559631 
	C419.119781,567.944641 413.314362,561.286072 420.592010,554.417542 
	C421.340729,553.710999 421.486908,552.290833 421.753662,551.164062 
	C422.351776,548.637634 421.816010,546.483521 418.713684,547.077148 
	C412.637543,548.239990 410.784882,544.692139 409.804565,539.817810 
	C407.664185,529.175415 401.802856,518.840271 407.695190,507.526978 
	C408.376526,506.218781 406.821594,502.099274 405.617432,501.766663 
	C402.104401,500.796265 401.996216,498.564026 401.734192,495.851166 
	C401.512543,493.556854 400.825073,491.311005 400.524811,489.019958 
	C400.137909,486.067780 398.847504,484.778992 395.621857,484.910736 
	C392.344879,485.044556 391.258087,486.597504 390.995422,489.492188 
	C390.756531,492.124664 390.563934,494.802185 389.890808,497.337738 
	C389.535614,498.675781 388.436646,500.399872 387.261871,500.832855 
	C382.878815,502.448364 382.417023,505.168762 383.990967,509.065399 
	C385.151886,511.939545 387.206696,515.162964 386.733246,517.856445 
	C385.188751,526.643005 382.806610,535.297119 380.375671,543.897339 
	C380.003296,545.214844 377.793762,546.275574 376.215515,546.921326 
	C374.360962,547.680298 370.588501,547.779236 370.564545,548.298828 
	C370.451294,550.757019 370.557312,553.945374 372.021912,555.607849 
	C375.175262,559.187317 374.703552,562.746704 373.611176,566.611389 
	C372.978821,568.848694 371.966675,570.988464 371.451294,573.246460 
	C370.757416,576.286377 368.945251,577.083984 366.029022,577.056885 
	C361.469666,577.014465 358.444397,582.231628 361.691193,585.189392 
	C366.760590,589.807495 363.422394,593.193115 361.392120,596.929871 
	C357.364532,604.342590 353.141998,611.649414 349.000000,619.000000 
M739.944641,270.511322 
	C728.849670,266.741760 719.776550,269.865906 712.406311,278.789459 
	C711.684448,278.572662 711.039062,278.448242 710.450989,278.191986 
	C697.840698,272.696808 686.581726,273.924896 676.861755,284.450378 
	C675.505432,285.919037 672.864624,286.822723 670.782593,286.890686 
	C662.462158,287.162262 654.106140,286.623444 645.803528,287.094086 
	C635.243835,287.692749 624.673401,288.624939 614.203796,290.097321 
	C607.517334,291.037628 602.799927,295.055023 601.406433,302.614014 
	C700.096924,302.614014 798.568237,302.614014 897.523499,302.614014 
	C895.385071,296.872437 892.745544,291.969696 886.415283,290.723572 
	C879.129333,289.289337 871.805969,287.542633 864.434937,287.158936 
	C852.971558,286.562164 841.451904,286.873566 829.960938,287.074707 
	C826.188477,287.140717 823.419373,286.138550 820.737976,283.364594 
	C812.157410,274.487854 801.157471,272.710815 789.649963,277.527222 
	C788.194702,278.136292 785.297119,277.648132 784.266174,276.546631 
	C776.686157,268.448242 768.047180,267.758881 757.784241,270.642151 
	C752.493103,272.128601 746.435181,270.885590 739.944641,270.511322 
M812.500000,142.001221 
	C865.105164,142.001221 917.710327,142.001221 970.376587,142.001221 
	C969.377014,131.755142 963.799988,126.003098 952.748413,123.110062 
	C939.182922,119.558983 925.417908,121.202644 913.273560,121.362350 
	C908.492981,114.894577 905.050476,108.195992 899.770142,103.616631 
	C893.367249,98.063789 885.901489,100.514267 879.438599,105.415100 
	C879.042297,104.407738 878.829346,103.782494 878.556274,103.184677 
	C872.519470,89.968193 866.268433,88.022202 853.109192,93.943291 
	C850.063354,95.313751 844.972839,94.829742 841.997437,93.136131 
	C834.627686,88.941185 829.337219,88.734505 823.781250,94.847931 
	C821.070190,97.831093 819.096069,101.484047 816.637573,105.052734 
	C815.591187,104.468170 814.602417,103.933495 813.630432,103.370049 
	C805.907654,98.893417 798.932617,99.637978 793.185425,106.542145 
	C790.178040,110.154991 788.550049,114.891670 786.054199,118.970970 
	C785.389221,120.057709 783.843018,121.240105 782.664734,121.279472 
	C771.224426,121.661728 759.710632,121.135445 748.351501,122.241928 
	C739.529663,123.101265 730.897461,125.899254 727.239197,135.675781 
	C725.145508,141.270966 725.600281,141.994751 731.501160,141.996902 
	C758.167419,142.006622 784.833740,142.001190 812.500000,142.001221 
M139.849014,51.998512 
	C137.152756,51.262085 134.429901,50.610310 131.765427,49.772778 
	C124.803894,47.584541 118.671791,49.453438 114.162598,54.693459 
	C111.712769,57.540352 109.975388,57.987743 106.686401,56.844303 
	C96.142548,53.178638 88.646667,55.580971 81.454834,64.046936 
	C80.180481,65.547058 77.747879,66.808990 75.808205,66.871063 
	C66.659401,67.163872 57.475132,66.623894 48.344944,67.129311 
	C41.947163,67.483467 35.508129,68.615486 29.286608,70.187866 
	C23.459961,71.660446 19.722075,77.118683 19.703945,82.542526 
	C103.317856,82.542526 186.930679,82.542526 270.844971,82.542526 
	C270.223846,76.495789 266.923004,72.625458 262.091980,71.073067 
	C255.860580,69.070709 249.280060,67.608589 242.764801,67.165695 
	C233.317261,66.523476 223.789032,67.154816 214.306061,66.875183 
	C212.355087,66.817657 209.881577,65.625046 208.620010,64.133980 
	C200.993347,55.120071 193.103195,52.798347 181.997681,57.078655 
	C179.517914,58.034416 178.258865,57.742325 176.628052,55.552807 
	C172.586304,50.126431 165.107407,48.136120 158.795883,49.486671 
	C152.879837,50.752602 146.787491,51.194710 139.849014,51.998512 
M404.500000,213.000000 
	C452.537292,213.000000 500.574585,213.000000 548.988708,213.000000 
	C548.695190,211.314423 548.685913,210.649048 548.461975,210.066147 
	C544.983276,201.013794 537.021301,198.757614 528.748657,198.142853 
	C516.995422,197.269424 505.173645,197.236526 493.377930,197.070999 
	C490.166290,197.025925 487.989838,196.330536 485.832336,193.578903 
	C479.663574,185.711258 471.029633,183.227448 461.864716,186.687225 
	C457.890350,188.187576 455.424103,187.403778 452.800842,184.380173 
	C447.836304,178.657990 441.502258,177.581528 434.667725,180.318176 
	C428.781036,182.675308 423.174805,182.680954 417.297241,180.296158 
	C409.876892,177.285370 402.148743,179.385666 397.216339,185.790131 
	C395.341492,188.224487 393.681213,188.094971 391.224121,187.145248 
	C380.856293,183.137817 372.747101,185.103683 365.998688,193.765244 
	C363.943787,196.402710 361.897919,197.099274 358.866974,197.050964 
	C350.369629,196.915512 341.830200,196.502029 333.381073,197.153793 
	C326.175232,197.709656 318.993134,199.269196 311.947632,200.987717 
	C306.326782,202.358734 304.141266,206.949692 303.119354,213.000000 
	C336.918457,213.000000 370.209229,213.000000 404.500000,213.000000 
M1058.099243,387.415527 
	C1056.074951,389.345917 1054.050659,391.276306 1051.998047,393.233704 
	C1037.783325,386.337189 1028.625610,391.577637 1023.512451,398.424988 
	C1021.402161,401.250977 1019.233459,402.011505 1015.996704,402.061829 
	C1004.203552,402.245056 992.362793,402.109467 980.638733,403.177795 
	C970.168823,404.131836 962.192383,406.594604 960.583252,417.543243 
	C1042.564941,417.543243 1124.500244,417.543243 1206.572876,417.543243 
	C1203.676636,407.951477 1198.246338,403.699310 1187.127319,403.084564 
	C1175.021362,402.415314 1162.884033,402.227295 1150.757324,402.075317 
	C1147.540039,402.035004 1145.258667,401.333801 1143.074829,398.718964 
	C1136.165771,390.446564 1127.776245,387.431671 1117.306274,392.131866 
	C1116.032104,392.703857 1113.289673,391.647339 1112.091797,390.467987 
	C1106.393311,384.857666 1099.957764,382.011108 1092.226562,385.176575 
	C1086.118896,387.677277 1080.310913,387.595947 1074.331421,385.243103 
	C1068.818481,383.073883 1063.584473,383.656250 1058.099243,387.415527 
M207.500000,372.001221 
	C218.662201,372.001221 229.824417,372.006348 240.986618,371.999298 
	C247.512543,371.995148 248.616669,370.112396 245.111465,364.442780 
	C244.123978,362.845581 242.517365,361.349426 240.842682,360.505463 
	C231.464218,355.778900 221.392365,355.283539 211.226639,356.549103 
	C208.508194,356.887512 206.950775,356.686401 205.532791,354.177399 
	C200.353851,345.013824 196.090088,343.392090 185.263794,346.182892 
	C180.812820,339.789612 175.326828,336.834137 167.379532,340.520844 
	C165.376740,341.449890 162.228531,341.243958 160.115631,340.352844 
	C153.616165,337.611816 148.537811,338.794250 144.243118,344.357361 
	C143.597961,345.193085 141.848801,345.974060 140.949997,345.693237 
	C131.849564,342.849915 126.434113,347.326874 122.079506,354.563904 
	C121.398270,355.696075 119.543427,356.701050 118.191750,356.753906 
	C111.113747,357.030548 103.974548,356.484283 96.948784,357.169312 
	C87.854652,358.056000 80.953270,363.500977 81.724403,372.001221 
	C123.279701,372.001221 164.889847,372.001221 207.500000,372.001221 
M1165.002075,47.506618 
	C1162.847046,48.239128 1160.641479,49.699089 1158.547607,49.553425 
	C1154.123779,49.245693 1149.787354,47.809711 1145.362061,47.362854 
	C1138.563477,46.676361 1131.202637,43.287159 1125.361572,50.859749 
	C1129.163696,53.535633 1132.852417,56.312943 1136.727173,58.800339 
	C1139.713989,60.717751 1139.313965,62.155319 1136.662720,63.909168 
	C1134.174927,65.554947 1131.449097,67.059143 1129.482300,69.220955 
	C1126.776245,72.195282 1124.445557,71.909401 1121.223145,70.188713 
	C1114.118652,66.395058 1110.977783,67.157997 1105.456299,73.367828 
	C1107.913696,75.047607 1110.275513,76.860748 1112.820068,78.364197 
	C1120.501221,82.902222 1121.354492,84.823158 1119.629272,93.766174 
	C1119.322510,95.355827 1119.585693,97.055397 1119.585693,99.497253 
	C1125.859375,96.488426 1131.998901,94.888657 1131.238403,86.562134 
	C1131.079712,84.825096 1132.406982,81.865234 1133.811768,81.271248 
	C1138.489868,79.293114 1143.514648,78.134903 1148.555786,76.617500 
	C1149.149658,82.729500 1149.717651,88.575630 1150.277588,94.337219 
	C1151.037964,94.422806 1151.386963,94.560768 1151.664917,94.473351 
	C1152.293579,94.275612 1152.877441,93.941162 1153.496460,93.706947 
	C1159.875000,91.293701 1160.709106,85.058342 1162.846802,79.842690 
	C1166.037354,72.058517 1168.125488,63.772453 1176.736450,59.525448 
	C1179.423584,58.200130 1181.675537,55.457752 1183.388428,52.874550 
	C1184.589111,51.064003 1185.531860,47.969433 1184.761963,46.282379 
	C1184.011353,44.637321 1180.762939,42.934307 1178.919067,43.223038 
	C1174.412476,43.928753 1170.083862,45.770649 1165.002075,47.506618 
z"/>
<path fill="#FFE3E0" opacity="1.000000" stroke="none" 
	d="
M438.000000,619.000000 
	C433.643097,619.000000 429.286194,619.000000 424.465454,618.590698 
	C423.409088,610.919434 419.631683,605.193787 415.389008,599.566101 
	C407.535095,589.148254 388.315308,587.449036 378.958160,596.544922 
	C372.574280,602.750549 369.074951,610.497192 367.000000,619.000000 
	C362.975464,619.000000 358.950897,619.000000 354.506348,618.649048 
	C356.923248,613.425110 360.173584,608.740112 362.494781,603.632812 
	C365.544952,596.921570 372.698151,590.819458 366.783508,582.233459 
	C366.677063,582.078979 366.953979,581.660400 367.052002,581.364990 
	C369.912689,580.683411 373.271667,579.534424 374.000122,577.461121 
	C376.938568,569.098145 383.121429,560.683777 375.156555,551.602112 
	C378.715790,550.343811 383.116425,552.408020 384.283508,546.903259 
	C386.069672,538.478882 389.207642,530.311401 390.580505,521.841736 
	C391.267487,517.603455 394.565552,512.024658 388.498474,508.368286 
	C388.256012,508.222137 389.003479,505.364319 389.442719,505.320984 
	C394.006836,504.870911 393.582550,501.414978 394.057526,498.356689 
	C394.413025,496.067810 395.079559,493.827240 395.891998,490.346802 
	C398.589661,496.597839 394.738068,504.673553 404.048401,505.776245 
	C403.671570,506.959656 403.669067,508.059509 403.150452,508.422974 
	C399.117310,511.249603 399.733917,514.910522 400.746429,518.943848 
	C402.641113,526.491211 404.282623,534.103455 405.947296,541.706726 
	C407.162109,547.255188 408.710327,552.341675 416.093079,551.428101 
	C416.207703,551.414001 416.390076,551.947205 416.801239,552.704651 
	C409.614410,556.961853 412.477753,563.049133 414.483093,568.781616 
	C416.408112,574.284424 415.709656,582.250732 425.458527,581.209045 
	C425.116272,582.587769 425.198151,583.906677 424.592621,584.429626 
	C420.669708,587.817566 422.351105,591.188660 424.321411,594.672058 
	C428.901611,602.769714 433.442932,610.889282 438.000000,619.000000 
M383.191498,573.945862 
	C382.777710,580.989685 382.777710,580.992859 389.449646,580.998413 
	C394.612762,581.002747 399.782104,580.842896 404.936768,581.051208 
	C408.404938,581.191406 409.553680,579.651733 408.876648,576.560425 
	C407.743042,571.384460 406.635620,566.182800 405.047821,561.139771 
	C404.630493,559.814270 402.470184,558.112915 401.141205,558.139404 
	C384.126190,558.477356 387.838409,554.462952 383.771210,572.167786 
	C383.697052,572.490662 383.565552,572.800354 383.191498,573.945862 
M390.943359,546.433777 
	C390.711121,547.770020 390.478882,549.106201 390.222839,550.579468 
	C394.405609,550.579468 397.902008,550.579468 402.012512,550.579468 
	C400.126526,544.147827 398.404877,538.276611 396.683228,532.405457 
	C396.220123,532.384949 395.756989,532.364441 395.293884,532.343933 
	C393.877777,536.773254 392.461639,541.202515 390.943359,546.433777 
z"/>
<path fill="#FFD5D2" opacity="1.000000" stroke="none" 
	d="
M438.416656,619.000000 
	C433.442932,610.889282 428.901611,602.769714 424.321411,594.672058 
	C422.351105,591.188660 420.669708,587.817566 424.592621,584.429626 
	C425.198151,583.906677 425.116272,582.587769 425.458527,581.209045 
	C415.709656,582.250732 416.408112,574.284424 414.483093,568.781616 
	C412.477753,563.049133 409.614410,556.961853 416.801239,552.704651 
	C416.390076,551.947205 416.207703,551.414001 416.093079,551.428101 
	C408.710327,552.341675 407.162109,547.255188 405.947296,541.706726 
	C404.282623,534.103455 402.641113,526.491211 400.746429,518.943848 
	C399.733917,514.910522 399.117310,511.249603 403.150452,508.422974 
	C403.669067,508.059509 403.671570,506.959656 404.048401,505.776245 
	C394.738068,504.673553 398.589661,496.597839 395.891998,490.346802 
	C395.079559,493.827240 394.413025,496.067810 394.057526,498.356689 
	C393.582550,501.414978 394.006836,504.870911 389.442719,505.320984 
	C389.003479,505.364319 388.256012,508.222137 388.498474,508.368286 
	C394.565552,512.024658 391.267487,517.603455 390.580505,521.841736 
	C389.207642,530.311401 386.069672,538.478882 384.283508,546.903259 
	C383.116425,552.408020 378.715790,550.343811 375.156555,551.602112 
	C383.121429,560.683777 376.938568,569.098145 374.000122,577.461121 
	C373.271667,579.534424 369.912689,580.683411 367.052002,581.364990 
	C366.953979,581.660400 366.677063,582.078979 366.783508,582.233459 
	C372.698151,590.819458 365.544952,596.921570 362.494781,603.632812 
	C360.173584,608.740112 356.923248,613.425110 354.043152,618.649048 
	C352.611115,619.000000 351.222198,619.000000 349.416687,619.000000 
	C353.141998,611.649414 357.364532,604.342590 361.392120,596.929871 
	C363.422394,593.193115 366.760590,589.807495 361.691193,585.189392 
	C358.444397,582.231628 361.469666,577.014465 366.029022,577.056885 
	C368.945251,577.083984 370.757416,576.286377 371.451294,573.246460 
	C371.966675,570.988464 372.978821,568.848694 373.611176,566.611389 
	C374.703552,562.746704 375.175262,559.187317 372.021912,555.607849 
	C370.557312,553.945374 370.451294,550.757019 370.564545,548.298828 
	C370.588501,547.779236 374.360962,547.680298 376.215515,546.921326 
	C377.793762,546.275574 380.003296,545.214844 380.375671,543.897339 
	C382.806610,535.297119 385.188751,526.643005 386.733246,517.856445 
	C387.206696,515.162964 385.151886,511.939545 383.990967,509.065399 
	C382.417023,505.168762 382.878815,502.448364 387.261871,500.832855 
	C388.436646,500.399872 389.535614,498.675781 389.890808,497.337738 
	C390.563934,494.802185 390.756531,492.124664 390.995422,489.492188 
	C391.258087,486.597504 392.344879,485.044556 395.621857,484.910736 
	C398.847504,484.778992 400.137909,486.067780 400.524811,489.019958 
	C400.825073,491.311005 401.512543,493.556854 401.734192,495.851166 
	C401.996216,498.564026 402.104401,500.796265 405.617432,501.766663 
	C406.821594,502.099274 408.376526,506.218781 407.695190,507.526978 
	C401.802856,518.840271 407.664185,529.175415 409.804565,539.817810 
	C410.784882,544.692139 412.637543,548.239990 418.713684,547.077148 
	C421.816010,546.483521 422.351776,548.637634 421.753662,551.164062 
	C421.486908,552.290833 421.340729,553.710999 420.592010,554.417542 
	C413.314362,561.286072 419.119781,567.944641 420.976837,574.559631 
	C421.280670,575.641846 423.403748,576.683716 424.815125,576.899536 
	C429.722809,577.649902 432.165527,581.629395 429.142731,585.517151 
	C426.607605,588.777649 427.359344,591.159241 429.010651,594.064331 
	C433.606537,602.149780 438.150482,610.264771 442.857483,618.684082 
	C441.611115,619.000000 440.222198,619.000000 438.416656,619.000000 
z"/>
<path fill="#FFC7C2" opacity="1.000000" stroke="none" 
	d="
M420.000000,619.000000 
	C404.312439,619.000000 388.624878,619.000000 372.468811,618.600708 
	C374.087341,603.753967 382.893280,595.989380 397.187775,595.992676 
	C398.185913,595.992920 399.264404,595.746094 400.167694,596.039124 
	C403.389130,597.084045 407.427307,597.456543 409.561768,599.641418 
	C414.769073,604.971680 419.024414,611.204956 420.000000,619.000000 
z"/>
<path fill="#FFD5D2" opacity="1.000000" stroke="none" 
	d="
M420.399994,619.000000 
	C419.024414,611.204956 414.769073,604.971680 409.561768,599.641418 
	C407.427307,597.456543 403.389130,597.084045 400.167694,596.039124 
	C399.264404,595.746094 398.185913,595.992920 397.187775,595.992676 
	C382.893280,595.989380 374.087341,603.753967 372.000153,618.600708 
	C370.611115,619.000000 369.222198,619.000000 367.416656,619.000000 
	C369.074951,610.497192 372.574280,602.750549 378.958160,596.544922 
	C388.315308,587.449036 407.535095,589.148254 415.389008,599.566101 
	C419.631683,605.193787 423.409088,610.919434 424.000793,618.590698 
	C422.933319,619.000000 421.866669,619.000000 420.399994,619.000000 
z"/>
<path fill="#FFD5D2" opacity="1.000000" stroke="none" 
	d="
M740.334167,270.693604 
	C746.435181,270.885590 752.493103,272.128601 757.784241,270.642151 
	C768.047180,267.758881 776.686157,268.448242 784.266174,276.546631 
	C785.297119,277.648132 788.194702,278.136292 789.649963,277.527222 
	C801.157471,272.710815 812.157410,274.487854 820.737976,283.364594 
	C823.419373,286.138550 826.188477,287.140717 829.960938,287.074707 
	C841.451904,286.873566 852.971558,286.562164 864.434937,287.158936 
	C871.805969,287.542633 879.129333,289.289337 886.415283,290.723572 
	C892.745544,291.969696 895.385071,296.872437 897.523499,302.614014 
	C798.568237,302.614014 700.096924,302.614014 601.406433,302.614014 
	C602.799927,295.055023 607.517334,291.037628 614.203796,290.097321 
	C624.673401,288.624939 635.243835,287.692749 645.803528,287.094086 
	C654.106140,286.623444 662.462158,287.162262 670.782593,286.890686 
	C672.864624,286.822723 675.505432,285.919037 676.861755,284.450378 
	C686.581726,273.924896 697.840698,272.696808 710.450989,278.191986 
	C711.039062,278.448242 711.684448,278.572662 712.406311,278.789459 
	C719.776550,269.865906 728.849670,266.741760 740.334167,270.693604 
M791.500000,298.998779 
	C824.166138,298.998779 856.832275,298.998779 889.498413,298.998779 
	C889.625061,298.384979 889.751648,297.771149 889.878235,297.157349 
	C887.744873,296.127228 885.708374,294.630493 883.458069,294.163086 
	C878.611816,293.156403 873.665710,292.179565 868.742554,292.080536 
	C854.997314,291.803955 841.240356,292.117126 827.494690,291.852325 
	C825.017639,291.804596 821.706848,290.825470 820.258057,289.062500 
	C812.962219,280.184113 804.238342,277.191528 793.331909,280.812897 
	C790.384460,281.791595 787.611450,283.295593 784.656006,284.603760 
	C784.258850,284.096588 783.838257,283.590363 783.450806,283.059937 
	C776.141602,273.055908 771.199768,272.063171 759.022461,274.843964 
	C752.643433,276.300629 745.187805,276.356995 738.989014,274.488800 
	C730.322327,271.876801 722.112610,273.402527 716.562012,281.218903 
	C714.602905,283.977631 713.104370,284.340363 710.029297,282.786407 
	C697.540894,276.475311 687.139465,278.408844 678.994385,288.790802 
	C676.741943,291.661865 674.463989,292.149292 671.347473,291.989807 
	C663.725769,291.599731 656.072205,290.771698 648.479309,291.130676 
	C637.419067,291.653564 626.382141,292.907593 615.378845,294.215790 
	C612.931641,294.506744 610.665527,296.320465 608.315979,297.433105 
	C608.472473,297.954987 608.628906,298.476898 608.785339,298.998779 
	C669.356873,298.998779 729.928467,298.998779 791.500000,298.998779 
z"/>
<path fill="#FFD5D2" opacity="1.000000" stroke="none" 
	d="
M812.000000,142.001221 
	C784.833740,142.001190 758.167419,142.006622 731.501160,141.996902 
	C725.600281,141.994751 725.145508,141.270966 727.239197,135.675781 
	C730.897461,125.899254 739.529663,123.101265 748.351501,122.241928 
	C759.710632,121.135445 771.224426,121.661728 782.664734,121.279472 
	C783.843018,121.240105 785.389221,120.057709 786.054199,118.970970 
	C788.550049,114.891670 790.178040,110.154991 793.185425,106.542145 
	C798.932617,99.637978 805.907654,98.893417 813.630432,103.370049 
	C814.602417,103.933495 815.591187,104.468170 816.637573,105.052734 
	C819.096069,101.484047 821.070190,97.831093 823.781250,94.847931 
	C829.337219,88.734505 834.627686,88.941185 841.997437,93.136131 
	C844.972839,94.829742 850.063354,95.313751 853.109192,93.943291 
	C866.268433,88.022202 872.519470,89.968193 878.556274,103.184677 
	C878.829346,103.782494 879.042297,104.407738 879.438599,105.415100 
	C885.901489,100.514267 893.367249,98.063789 899.770142,103.616631 
	C905.050476,108.195992 908.492981,114.894577 913.273560,121.362350 
	C925.417908,121.202644 939.182922,119.558983 952.748413,123.110062 
	C963.799988,126.003098 969.377014,131.755142 970.376587,142.001221 
	C917.710327,142.001221 865.105164,142.001221 812.000000,142.001221 
M924.500000,138.000610 
	C937.875183,138.000610 951.250366,138.000610 965.436584,138.000610 
	C962.645935,131.230103 957.892273,128.747025 952.544617,127.402657 
	C940.829895,124.457672 928.922119,124.062660 916.994568,125.842781 
	C909.609375,126.944992 908.973572,126.445183 905.893677,119.558052 
	C904.099182,115.545158 901.577209,111.697678 898.695557,108.370842 
	C894.994202,104.097733 891.026733,103.605865 886.153870,106.536804 
	C883.119385,108.362007 880.597473,111.039490 877.568787,113.565285 
	C876.358398,110.328674 875.352905,107.028992 873.921448,103.925743 
	C869.428589,94.185509 865.095520,93.348808 855.435974,97.644440 
	C851.290283,99.488037 844.378296,100.177727 841.126953,97.923958 
	C834.098328,93.051826 827.200378,94.450302 823.523254,102.031776 
	C821.819214,105.545120 820.455322,109.223442 818.641418,113.529182 
	C816.535950,111.648804 814.700745,110.095001 812.961670,108.440239 
	C808.145508,103.857552 802.554016,103.180496 797.964783,107.925087 
	C794.607666,111.395851 791.683228,115.904495 790.275391,120.476875 
	C788.694641,125.611107 785.889771,126.297104 781.475342,126.017670 
	C773.864624,125.535889 766.217712,124.837196 758.621216,125.133217 
	C750.511108,125.449257 742.323303,126.532166 735.552795,131.758438 
	C733.770264,133.134415 732.482788,135.151749 730.967896,136.874573 
	C731.237610,137.249908 731.507385,137.625259 731.777100,138.000610 
	C795.684753,138.000610 859.592346,138.000610 924.500000,138.000610 
z"/>
<path fill="#FFD5D2" opacity="1.000000" stroke="none" 
	d="
M140.310883,51.998932 
	C146.787491,51.194710 152.879837,50.752602 158.795883,49.486671 
	C165.107407,48.136120 172.586304,50.126431 176.628052,55.552807 
	C178.258865,57.742325 179.517914,58.034416 181.997681,57.078655 
	C193.103195,52.798347 200.993347,55.120071 208.620010,64.133980 
	C209.881577,65.625046 212.355087,66.817657 214.306061,66.875183 
	C223.789032,67.154816 233.317261,66.523476 242.764801,67.165695 
	C249.280060,67.608589 255.860580,69.070709 262.091980,71.073067 
	C266.923004,72.625458 270.223846,76.495789 270.844971,82.542526 
	C186.930679,82.542526 103.317856,82.542526 19.703945,82.542526 
	C19.722075,77.118683 23.459961,71.660446 29.286608,70.187866 
	C35.508129,68.615486 41.947163,67.483467 48.344944,67.129311 
	C57.475132,66.623894 66.659401,67.163872 75.808205,66.871063 
	C77.747879,66.808990 80.180481,65.547058 81.454834,64.046936 
	C88.646667,55.580971 96.142548,53.178638 106.686401,56.844303 
	C109.975388,57.987743 111.712769,57.540352 114.162598,54.693459 
	C118.671791,49.453438 124.803894,47.584541 131.765427,49.772778 
	C134.429901,50.610310 137.152756,51.262085 140.310883,51.998932 
M171.500000,78.998169 
	C202.466217,78.998169 233.432434,78.998169 264.398651,78.998169 
	C264.496002,78.419731 264.593353,77.841286 264.690735,77.262848 
	C262.373901,76.103683 260.167114,74.528687 257.715271,73.879845 
	C253.736450,72.826920 249.615936,71.941780 245.521667,71.765549 
	C235.400131,71.329880 225.210342,70.687737 215.148407,71.451546 
	C210.449829,71.808228 208.176697,71.053001 205.395020,67.329605 
	C199.139328,58.956123 190.873001,56.435410 180.967941,62.629131 
	C179.772659,63.376560 178.498154,63.997284 177.255417,64.679443 
	C171.354568,53.339649 166.867050,51.894577 154.869537,55.352592 
	C148.049118,57.318428 140.553253,57.648129 133.951370,54.784084 
	C124.937164,50.873520 119.763191,54.784309 115.101929,60.844337 
	C114.327652,61.850956 113.671234,62.948242 112.769371,64.287163 
	C110.259460,63.070301 108.057281,61.947651 105.810234,60.923435 
	C98.851204,57.751484 91.943153,59.115673 86.779755,64.772644 
	C85.444618,66.235413 84.633362,68.231812 83.164833,69.501053 
	C81.821877,70.661766 79.909264,71.866783 78.258537,71.851868 
	C68.797562,71.766357 59.326595,70.877853 49.885677,71.158569 
	C43.661205,71.343643 37.441063,72.848000 31.305889,74.166115 
	C29.401516,74.575256 27.782110,76.310776 26.032244,77.439056 
	C26.261145,77.958755 26.490046,78.478462 26.718948,78.998169 
	C74.645966,78.998169 122.572983,78.998169 171.500000,78.998169 
z"/>
<path fill="#FFD5D2" opacity="1.000000" stroke="none" 
	d="
M404.000000,213.000000 
	C370.209229,213.000000 336.918457,213.000000 303.119354,213.000000 
	C304.141266,206.949692 306.326782,202.358734 311.947632,200.987717 
	C318.993134,199.269196 326.175232,197.709656 333.381073,197.153793 
	C341.830200,196.502029 350.369629,196.915512 358.866974,197.050964 
	C361.897919,197.099274 363.943787,196.402710 365.998688,193.765244 
	C372.747101,185.103683 380.856293,183.137817 391.224121,187.145248 
	C393.681213,188.094971 395.341492,188.224487 397.216339,185.790131 
	C402.148743,179.385666 409.876892,177.285370 417.297241,180.296158 
	C423.174805,182.680954 428.781036,182.675308 434.667725,180.318176 
	C441.502258,177.581528 447.836304,178.657990 452.800842,184.380173 
	C455.424103,187.403778 457.890350,188.187576 461.864716,186.687225 
	C471.029633,183.227448 479.663574,185.711258 485.832336,193.578903 
	C487.989838,196.330536 490.166290,197.025925 493.377930,197.070999 
	C505.173645,197.236526 516.995422,197.269424 528.748657,198.142853 
	C537.021301,198.757614 544.983276,201.013794 548.461975,210.066147 
	C548.685913,210.649048 548.695190,211.314423 548.988708,213.000000 
	C500.574585,213.000000 452.537292,213.000000 404.000000,213.000000 
M416.017670,184.539001 
	C405.666351,180.582108 401.036713,187.927032 396.289490,195.146362 
	C394.883545,194.070862 393.893188,193.227798 392.820831,192.506622 
	C384.820770,187.126434 374.061279,188.689774 369.280029,196.941940 
	C366.243439,202.182892 362.337677,202.505524 357.592010,201.871414 
	C343.622955,200.004898 329.790131,200.714340 316.135223,204.069000 
	C313.740265,204.657379 311.639832,206.444717 309.403412,207.678329 
	C309.628723,208.010681 309.854065,208.343033 310.079376,208.675385 
	C387.407196,208.675385 464.735046,208.675385 542.062866,208.675385 
	C540.651489,206.503662 538.939758,204.699997 536.923584,204.244705 
	C523.093201,201.121521 509.118286,199.915131 494.961487,201.774109 
	C490.533783,202.355530 486.534180,202.633286 483.204834,197.927689 
	C476.456238,188.389435 469.104065,187.179474 458.609772,192.969299 
	C456.245300,194.273788 454.900818,194.168915 453.312988,191.772934 
	C447.816071,183.478226 443.907593,182.737549 434.377960,184.791733 
	C428.764221,186.001785 422.660583,184.939087 416.017670,184.539001 
z"/>
<path fill="#FFD5D2" opacity="1.000000" stroke="none" 
	d="
M1058.371582,387.166718 
	C1063.584473,383.656250 1068.818481,383.073883 1074.331421,385.243103 
	C1080.310913,387.595947 1086.118896,387.677277 1092.226562,385.176575 
	C1099.957764,382.011108 1106.393311,384.857666 1112.091797,390.467987 
	C1113.289673,391.647339 1116.032104,392.703857 1117.306274,392.131866 
	C1127.776245,387.431671 1136.165771,390.446564 1143.074829,398.718964 
	C1145.258667,401.333801 1147.540039,402.035004 1150.757324,402.075317 
	C1162.884033,402.227295 1175.021362,402.415314 1187.127319,403.084564 
	C1198.246338,403.699310 1203.676636,407.951477 1206.572876,417.543243 
	C1124.500244,417.543243 1042.564941,417.543243 960.583252,417.543243 
	C962.192383,406.594604 970.168823,404.131836 980.638733,403.177795 
	C992.362793,402.109467 1004.203552,402.245056 1015.996704,402.061829 
	C1019.233459,402.011505 1021.402161,401.250977 1023.512451,398.424988 
	C1028.625610,391.577637 1037.783325,386.337189 1051.998047,393.233704 
	C1054.050659,391.276306 1056.074951,389.345917 1058.371582,387.166718 
M1058.002319,393.539856 
	C1056.674805,395.577942 1055.347168,397.616028 1054.025269,399.645508 
	C1040.168945,391.106934 1033.007935,392.771881 1024.273560,404.851227 
	C1023.287537,406.214783 1020.530212,406.894409 1018.604004,406.876038 
	C1010.975159,406.803314 1003.310852,405.698120 995.734192,406.170074 
	C987.533997,406.680908 979.392517,408.392242 971.282959,409.891144 
	C969.565491,410.208557 968.096863,411.872345 965.785095,413.395905 
	C1044.602417,413.395905 1122.052246,413.395905 1199.501953,413.395905 
	C1199.630859,412.892822 1199.759644,412.389740 1199.888428,411.886688 
	C1196.763916,410.621826 1193.744019,408.795776 1190.496582,408.189850 
	C1176.883301,405.649597 1163.159302,404.966827 1149.380737,406.915009 
	C1145.849121,407.414337 1143.417114,406.456940 1140.929443,403.355682 
	C1138.181396,399.929565 1134.321045,396.905853 1130.318237,395.086578 
	C1123.750000,392.101410 1118.349121,396.544891 1112.827759,399.764587 
	C1112.365112,399.156372 1111.932129,398.678528 1111.600830,398.138306 
	C1105.194092,387.689392 1102.511841,387.182892 1090.854980,390.227600 
	C1085.843750,391.536530 1079.766968,391.154083 1074.784302,389.593079 
	C1068.225830,387.538452 1063.149048,388.096527 1058.002319,393.539856 
z"/>
<path fill="#FFD5D2" opacity="1.000000" stroke="none" 
	d="
M207.000000,372.001221 
	C164.889847,372.001221 123.279701,372.001221 81.724403,372.001221 
	C80.953270,363.500977 87.854652,358.056000 96.948784,357.169312 
	C103.974548,356.484283 111.113747,357.030548 118.191750,356.753906 
	C119.543427,356.701050 121.398270,355.696075 122.079506,354.563904 
	C126.434113,347.326874 131.849564,342.849915 140.949997,345.693237 
	C141.848801,345.974060 143.597961,345.193085 144.243118,344.357361 
	C148.537811,338.794250 153.616165,337.611816 160.115631,340.352844 
	C162.228531,341.243958 165.376740,341.449890 167.379532,340.520844 
	C175.326828,336.834137 180.812820,339.789612 185.263794,346.182892 
	C196.090088,343.392090 200.353851,345.013824 205.532791,354.177399 
	C206.950775,356.686401 208.508194,356.887512 211.226639,356.549103 
	C221.392365,355.283539 231.464218,355.778900 240.842682,360.505463 
	C242.517365,361.349426 244.123978,362.845581 245.111465,364.442780 
	C248.616669,370.112396 247.512543,371.995148 240.986618,371.999298 
	C229.824417,372.006348 218.662201,372.001221 207.000000,372.001221 
M232.402145,368.001221 
	C235.303162,368.001221 238.204178,368.001221 241.105179,368.001221 
	C241.273941,367.459808 241.442688,366.918365 241.611450,366.376953 
	C239.000320,364.957764 236.487915,362.578918 233.759644,362.298187 
	C225.363434,361.434265 216.887283,361.266663 208.436523,361.057129 
	C205.488235,360.984039 203.947906,360.250885 202.404938,357.298309 
	C198.297714,349.438843 192.431519,345.083069 185.088760,353.211029 
	C184.824799,353.503204 184.195724,353.465546 183.637985,353.606598 
	C183.128265,352.484161 182.667633,351.433563 182.177719,350.396759 
	C178.563248,342.747498 176.616364,342.285431 168.786041,345.242523 
	C166.100449,346.256683 162.370667,346.118805 159.642288,345.101257 
	C151.773956,342.166840 150.372131,342.434631 146.500854,349.973206 
	C145.903076,351.137268 145.221725,352.258453 144.399551,353.718079 
	C143.118423,352.876801 141.998062,352.221222 140.964890,351.448975 
	C136.318146,347.975739 133.199722,348.125610 129.210754,352.361847 
	C127.871536,353.784119 126.698410,355.503754 125.934212,357.294373 
	C124.703064,360.179138 122.794060,361.154724 119.710815,361.058655 
	C113.388954,360.861694 107.043259,360.746857 100.732689,361.078949 
	C95.377670,361.360809 90.070427,362.343109 86.200203,368.001221 
	C135.201523,368.001221 183.316574,368.001221 232.402145,368.001221 
z"/>
<path fill="#FFD5D2" opacity="1.000000" stroke="none" 
	d="
M1165.342773,47.330910 
	C1170.083862,45.770649 1174.412476,43.928753 1178.919067,43.223038 
	C1180.762939,42.934307 1184.011353,44.637321 1184.761963,46.282379 
	C1185.531860,47.969433 1184.589111,51.064003 1183.388428,52.874550 
	C1181.675537,55.457752 1179.423584,58.200130 1176.736450,59.525448 
	C1168.125488,63.772453 1166.037354,72.058517 1162.846802,79.842690 
	C1160.709106,85.058342 1159.875000,91.293701 1153.496460,93.706947 
	C1152.877441,93.941162 1152.293579,94.275612 1151.664917,94.473351 
	C1151.386963,94.560768 1151.037964,94.422806 1150.277588,94.337219 
	C1149.717651,88.575630 1149.149658,82.729500 1148.555786,76.617500 
	C1143.514648,78.134903 1138.489868,79.293114 1133.811768,81.271248 
	C1132.406982,81.865234 1131.079712,84.825096 1131.238403,86.562134 
	C1131.998901,94.888657 1125.859375,96.488426 1119.585693,99.497253 
	C1119.585693,97.055397 1119.322510,95.355827 1119.629272,93.766174 
	C1121.354492,84.823158 1120.501221,82.902222 1112.820068,78.364197 
	C1110.275513,76.860748 1107.913696,75.047607 1105.456299,73.367828 
	C1110.977783,67.157997 1114.118652,66.395058 1121.223145,70.188713 
	C1124.445557,71.909401 1126.776245,72.195282 1129.482300,69.220955 
	C1131.449097,67.059143 1134.174927,65.554947 1136.662720,63.909168 
	C1139.313965,62.155319 1139.713989,60.717751 1136.727173,58.800339 
	C1132.852417,56.312943 1129.163696,53.535633 1125.361572,50.859749 
	C1131.202637,43.287159 1138.563477,46.676361 1145.362061,47.362854 
	C1149.787354,47.809711 1154.123779,49.245693 1158.547607,49.553425 
	C1160.641479,49.699089 1162.847046,48.239128 1165.342773,47.330910 
M1145.907959,72.519638 
	C1147.964478,71.666206 1150.020874,70.812775 1152.481323,69.791672 
	C1153.121094,75.986694 1153.684937,81.447990 1154.296387,87.369308 
	C1154.958740,86.582901 1155.350220,86.271248 1155.538818,85.865303 
	C1156.097534,84.662941 1156.558350,83.415611 1157.088623,82.199554 
	C1161.652588,71.732674 1164.203735,59.984509 1176.014648,54.288097 
	C1178.228271,53.220409 1179.641357,50.492821 1181.423950,48.531216 
	C1181.012451,47.879887 1180.600952,47.228558 1180.189453,46.577229 
	C1175.997925,48.111740 1171.623291,49.282459 1167.663452,51.276928 
	C1163.159302,53.545471 1158.930420,54.496220 1153.825195,53.296028 
	C1147.302368,51.762615 1140.553711,51.189762 1133.902466,50.202923 
	C1137.149780,53.646114 1140.773560,56.400845 1144.534790,58.953003 
	C1147.982544,61.292400 1147.163940,62.737350 1144.001709,64.581810 
	C1140.144287,66.831673 1136.473389,69.437248 1132.916260,72.144402 
	C1131.839111,72.964211 1131.406982,74.631508 1130.679321,75.910606 
	C1132.038086,76.008873 1133.492310,76.466873 1134.737549,76.136978 
	C1138.266357,75.202278 1141.709717,73.945244 1145.907959,72.519638 
z"/>
<path fill="#FFD5D2" opacity="1.000000" stroke="none" 
	d="
M383.326141,573.531006 
	C383.565552,572.800354 383.697052,572.490662 383.771210,572.167786 
	C387.838409,554.462952 384.126190,558.477356 401.141205,558.139404 
	C402.470184,558.112915 404.630493,559.814270 405.047821,561.139771 
	C406.635620,566.182800 407.743042,571.384460 408.876648,576.560425 
	C409.553680,579.651733 408.404938,581.191406 404.936768,581.051208 
	C399.782104,580.842896 394.612762,581.002747 389.449646,580.998413 
	C382.777710,580.992859 382.777710,580.989685 383.326141,573.531006 
M403.938965,572.748535 
	C403.296600,570.029785 402.778320,567.274109 401.982513,564.601013 
	C400.810699,560.665039 397.382294,562.003540 394.862122,562.139954 
	C393.113556,562.234558 390.411865,563.253418 389.920746,564.540405 
	C388.497894,568.269043 387.975861,572.341431 386.948364,576.962219 
	C392.251251,576.962219 396.850220,577.145203 401.411194,576.810242 
	C402.341125,576.741943 403.128082,574.726562 403.938965,572.748535 
z"/>
<path fill="#FFD5D2" opacity="1.000000" stroke="none" 
	d="
M390.994446,546.032837 
	C392.461639,541.202515 393.877777,536.773254 395.293884,532.343933 
	C395.756989,532.364441 396.220123,532.384949 396.683228,532.405457 
	C398.404877,538.276611 400.126526,544.147827 402.012512,550.579468 
	C397.902008,550.579468 394.405609,550.579468 390.222839,550.579468 
	C390.478882,549.106201 390.711121,547.770020 390.994446,546.032837 
z"/>
<path fill="#FFE3E0" opacity="1.000000" stroke="none" 
	d="
M791.000000,298.998779 
	C729.928467,298.998779 669.356873,298.998779 608.785339,298.998779 
	C608.628906,298.476898 608.472473,297.954987 608.315979,297.433105 
	C610.665527,296.320465 612.931641,294.506744 615.378845,294.215790 
	C626.382141,292.907593 637.419067,291.653564 648.479309,291.130676 
	C656.072205,290.771698 663.725769,291.599731 671.347473,291.989807 
	C674.463989,292.149292 676.741943,291.661865 678.994385,288.790802 
	C687.139465,278.408844 697.540894,276.475311 710.029297,282.786407 
	C713.104370,284.340363 714.602905,283.977631 716.562012,281.218903 
	C722.112610,273.402527 730.322327,271.876801 738.989014,274.488800 
	C745.187805,276.356995 752.643433,276.300629 759.022461,274.843964 
	C771.199768,272.063171 776.141602,273.055908 783.450806,283.059937 
	C783.838257,283.590363 784.258850,284.096588 784.656006,284.603760 
	C787.611450,283.295593 790.384460,281.791595 793.331909,280.812897 
	C804.238342,277.191528 812.962219,280.184113 820.258057,289.062500 
	C821.706848,290.825470 825.017639,291.804596 827.494690,291.852325 
	C841.240356,292.117126 854.997314,291.803955 868.742554,292.080536 
	C873.665710,292.179565 878.611816,293.156403 883.458069,294.163086 
	C885.708374,294.630493 887.744873,296.127228 889.878235,297.157349 
	C889.751648,297.771149 889.625061,298.384979 889.498413,298.998779 
	C856.832275,298.998779 824.166138,298.998779 791.000000,298.998779 
z"/>
<path fill="#FFE3E0" opacity="1.000000" stroke="none" 
	d="
M924.000000,138.000610 
	C859.592346,138.000610 795.684753,138.000610 731.777100,138.000610 
	C731.507385,137.625259 731.237610,137.249908 730.967896,136.874573 
	C732.482788,135.151749 733.770264,133.134415 735.552795,131.758438 
	C742.323303,126.532166 750.511108,125.449257 758.621216,125.133217 
	C766.217712,124.837196 773.864624,125.535889 781.475342,126.017670 
	C785.889771,126.297104 788.694641,125.611107 790.275391,120.476875 
	C791.683228,115.904495 794.607666,111.395851 797.964783,107.925087 
	C802.554016,103.180496 808.145508,103.857552 812.961670,108.440239 
	C814.700745,110.095001 816.535950,111.648804 818.641418,113.529182 
	C820.455322,109.223442 821.819214,105.545120 823.523254,102.031776 
	C827.200378,94.450302 834.098328,93.051826 841.126953,97.923958 
	C844.378296,100.177727 851.290283,99.488037 855.435974,97.644440 
	C865.095520,93.348808 869.428589,94.185509 873.921448,103.925743 
	C875.352905,107.028992 876.358398,110.328674 877.568787,113.565285 
	C880.597473,111.039490 883.119385,108.362007 886.153870,106.536804 
	C891.026733,103.605865 894.994202,104.097733 898.695557,108.370842 
	C901.577209,111.697678 904.099182,115.545158 905.893677,119.558052 
	C908.973572,126.445183 909.609375,126.944992 916.994568,125.842781 
	C928.922119,124.062660 940.829895,124.457672 952.544617,127.402657 
	C957.892273,128.747025 962.645935,131.230103 965.436584,138.000610 
	C951.250366,138.000610 937.875183,138.000610 924.000000,138.000610 
z"/>
<path fill="#FFE3E0" opacity="1.000000" stroke="none" 
	d="
M171.000000,78.998169 
	C122.572983,78.998169 74.645966,78.998169 26.718948,78.998169 
	C26.490046,78.478462 26.261145,77.958755 26.032244,77.439056 
	C27.782110,76.310776 29.401516,74.575256 31.305889,74.166115 
	C37.441063,72.848000 43.661205,71.343643 49.885677,71.158569 
	C59.326595,70.877853 68.797562,71.766357 78.258537,71.851868 
	C79.909264,71.866783 81.821877,70.661766 83.164833,69.501053 
	C84.633362,68.231812 85.444618,66.235413 86.779755,64.772644 
	C91.943153,59.115673 98.851204,57.751484 105.810234,60.923435 
	C108.057281,61.947651 110.259460,63.070301 112.769371,64.287163 
	C113.671234,62.948242 114.327652,61.850956 115.101929,60.844337 
	C119.763191,54.784309 124.937164,50.873520 133.951370,54.784084 
	C140.553253,57.648129 148.049118,57.318428 154.869537,55.352592 
	C166.867050,51.894577 171.354568,53.339649 177.255417,64.679443 
	C178.498154,63.997284 179.772659,63.376560 180.967941,62.629131 
	C190.873001,56.435410 199.139328,58.956123 205.395020,67.329605 
	C208.176697,71.053001 210.449829,71.808228 215.148407,71.451546 
	C225.210342,70.687737 235.400131,71.329880 245.521667,71.765549 
	C249.615936,71.941780 253.736450,72.826920 257.715271,73.879845 
	C260.167114,74.528687 262.373901,76.103683 264.690735,77.262848 
	C264.593353,77.841286 264.496002,78.419731 264.398651,78.998169 
	C233.432434,78.998169 202.466217,78.998169 171.000000,78.998169 
z"/>
<path fill="#FFE3E0" opacity="1.000000" stroke="none" 
	d="
M416.397461,184.718781 
	C422.660583,184.939087 428.764221,186.001785 434.377960,184.791733 
	C443.907593,182.737549 447.816071,183.478226 453.312988,191.772934 
	C454.900818,194.168915 456.245300,194.273788 458.609772,192.969299 
	C469.104065,187.179474 476.456238,188.389435 483.204834,197.927689 
	C486.534180,202.633286 490.533783,202.355530 494.961487,201.774109 
	C509.118286,199.915131 523.093201,201.121521 536.923584,204.244705 
	C538.939758,204.699997 540.651489,206.503662 542.062866,208.675385 
	C464.735046,208.675385 387.407196,208.675385 310.079376,208.675385 
	C309.854065,208.343033 309.628723,208.010681 309.403412,207.678329 
	C311.639832,206.444717 313.740265,204.657379 316.135223,204.069000 
	C329.790131,200.714340 343.622955,200.004898 357.592010,201.871414 
	C362.337677,202.505524 366.243439,202.182892 369.280029,196.941940 
	C374.061279,188.689774 384.820770,187.126434 392.820831,192.506622 
	C393.893188,193.227798 394.883545,194.070862 396.289490,195.146362 
	C401.036713,187.927032 405.666351,180.582108 416.397461,184.718781 
z"/>
<path fill="#FFE3E0" opacity="1.000000" stroke="none" 
	d="
M1058.250977,393.274841 
	C1063.149048,388.096527 1068.225830,387.538452 1074.784302,389.593079 
	C1079.766968,391.154083 1085.843750,391.536530 1090.854980,390.227600 
	C1102.511841,387.182892 1105.194092,387.689392 1111.600830,398.138306 
	C1111.932129,398.678528 1112.365112,399.156372 1112.827759,399.764587 
	C1118.349121,396.544891 1123.750000,392.101410 1130.318237,395.086578 
	C1134.321045,396.905853 1138.181396,399.929565 1140.929443,403.355682 
	C1143.417114,406.456940 1145.849121,407.414337 1149.380737,406.915009 
	C1163.159302,404.966827 1176.883301,405.649597 1190.496582,408.189850 
	C1193.744019,408.795776 1196.763916,410.621826 1199.888428,411.886688 
	C1199.759644,412.389740 1199.630859,412.892822 1199.501953,413.395905 
	C1122.052246,413.395905 1044.602417,413.395905 965.785095,413.395905 
	C968.096863,411.872345 969.565491,410.208557 971.282959,409.891144 
	C979.392517,408.392242 987.533997,406.680908 995.734192,406.170074 
	C1003.310852,405.698120 1010.975159,406.803314 1018.604004,406.876038 
	C1020.530212,406.894409 1023.287537,406.214783 1024.273560,404.851227 
	C1033.007935,392.771881 1040.168945,391.106934 1054.025269,399.645508 
	C1055.347168,397.616028 1056.674805,395.577942 1058.250977,393.274841 
z"/>
<path fill="#FFE3E0" opacity="1.000000" stroke="none" 
	d="
M231.916901,368.001221 
	C183.316574,368.001221 135.201523,368.001221 86.200203,368.001221 
	C90.070427,362.343109 95.377670,361.360809 100.732689,361.078949 
	C107.043259,360.746857 113.388954,360.861694 119.710815,361.058655 
	C122.794060,361.154724 124.703064,360.179138 125.934212,357.294373 
	C126.698410,355.503754 127.871536,353.784119 129.210754,352.361847 
	C133.199722,348.125610 136.318146,347.975739 140.964890,351.448975 
	C141.998062,352.221222 143.118423,352.876801 144.399551,353.718079 
	C145.221725,352.258453 145.903076,351.137268 146.500854,349.973206 
	C150.372131,342.434631 151.773956,342.166840 159.642288,345.101257 
	C162.370667,346.118805 166.100449,346.256683 168.786041,345.242523 
	C176.616364,342.285431 178.563248,342.747498 182.177719,350.396759 
	C182.667633,351.433563 183.128265,352.484161 183.637985,353.606598 
	C184.195724,353.465546 184.824799,353.503204 185.088760,353.211029 
	C192.431519,345.083069 198.297714,349.438843 202.404938,357.298309 
	C203.947906,360.250885 205.488235,360.984039 208.436523,361.057129 
	C216.887283,361.266663 225.363434,361.434265 233.759644,362.298187 
	C236.487915,362.578918 239.000320,364.957764 241.611450,366.376953 
	C241.442688,366.918365 241.273941,367.459808 241.105179,368.001221 
	C238.204178,368.001221 235.303162,368.001221 231.916901,368.001221 
z"/>
<path fill="#FFE3E0" opacity="1.000000" stroke="none" 
	d="
M1145.547363,72.667389 
	C1141.709717,73.945244 1138.266357,75.202278 1134.737549,76.136978 
	C1133.492310,76.466873 1132.038086,76.008873 1130.679321,75.910606 
	C1131.406982,74.631508 1131.839111,72.964211 1132.916260,72.144402 
	C1136.473389,69.437248 1140.144287,66.831673 1144.001709,64.581810 
	C1147.163940,62.737350 1147.982544,61.292400 1144.534790,58.953003 
	C1140.773560,56.400845 1137.149780,53.646114 1133.902466,50.202923 
	C1140.553711,51.189762 1147.302368,51.762615 1153.825195,53.296028 
	C1158.930420,54.496220 1163.159302,53.545471 1167.663452,51.276928 
	C1171.623291,49.282459 1175.997925,48.111740 1180.189453,46.577229 
	C1180.600952,47.228558 1181.012451,47.879887 1181.423950,48.531216 
	C1179.641357,50.492821 1178.228271,53.220409 1176.014648,54.288097 
	C1164.203735,59.984509 1161.652588,71.732674 1157.088623,82.199554 
	C1156.558350,83.415611 1156.097534,84.662941 1155.538818,85.865303 
	C1155.350220,86.271248 1154.958740,86.582901 1154.296387,87.369308 
	C1153.684937,81.447990 1153.121094,75.986694 1152.481323,69.791672 
	C1150.020874,70.812775 1147.964478,71.666206 1145.547363,72.667389 
z"/>
<path fill="#FFC7C2" opacity="1.000000" stroke="none" 
	d="
M403.959961,573.178589 
	C403.128082,574.726562 402.341125,576.741943 401.411194,576.810242 
	C396.850220,577.145203 392.251251,576.962219 386.948364,576.962219 
	C387.975861,572.341431 388.497894,568.269043 389.920746,564.540405 
	C390.411865,563.253418 393.113556,562.234558 394.862122,562.139954 
	C397.382294,562.003540 400.810699,560.665039 401.982513,564.601013 
	C402.778320,567.274109 403.296600,570.029785 403.959961,573.178589 
z"/>
</svg>